<svg width="40" height="40" viewBox="0 0 40 40" fill="none" xmlns="http://www.w3.org/2000/svg">
<path d="M5 5.99994H14C15.5913 5.99994 17.1174 6.65549 18.2426 7.82239C19.3679 8.98928 20 10.5719 20 12.2222V33.9999C20 32.7623 19.5259 31.5753 18.682 30.7001C17.8381 29.8249 16.6935 29.3333 15.5 29.3333H5V5.99994Z" stroke="white" stroke-width="3" stroke-linecap="round" stroke-linejoin="round"/>
<path d="M35 5.99994H26C24.4087 5.99994 22.8826 6.65549 21.7574 7.82239C20.6321 8.98928 20 10.5719 20 12.2222V33.9999C20 32.7623 20.4741 31.5753 21.318 30.7001C22.1619 29.8249 23.3065 29.3333 24.5 29.3333H35V5.99994Z" stroke="white" stroke-width="3" stroke-linecap="round" stroke-linejoin="round"/>
</svg>
