<svg width="160" height="80" viewBox="0 0 160 80" fill="none" xmlns="http://www.w3.org/2000/svg">
<g clip-path="url(#clip0)">
<path d="M26.8235 1.97754H7.66947C2.57239 1.97754 0 4.44805 0 9.34147V35.5312C0 36.1726 0.345042 36.5676 1.08843 36.5676H6.8784C7.57129 36.5676 8.01732 36.1726 8.01732 35.5312V34.5368C8.01732 32.1111 9.04123 30.789 11.5856 30.5341H26.8235C32.4143 30.5341 34.939 28.114 34.939 22.8257V9.686C34.939 4.39764 32.4143 1.97754 26.8235 1.97754ZM26.9301 20.6016C26.9301 23.4699 26.2793 24.0609 22.8625 24.0609H14.747C11.3331 24.0609 9.15344 25.1981 8.01452 27.4222V11.2686C8.01452 9.04456 8.55873 8.45074 11.2798 8.45074H22.8625C26.2793 8.45074 26.9301 9.04456 26.9301 11.91V20.6016Z" fill="white"/>
<path d="M53.2992 16.4561C48.895 16.4561 47.0127 18.6801 47.0127 22.4363V35.6292C47.0127 36.223 46.7154 36.5675 46.0225 36.5675H40.7767C40.0838 36.5675 39.7388 36.223 39.7388 35.6292V11.515C39.7388 10.9212 40.0838 10.5739 40.7767 10.5739H45.1809C45.8261 10.5739 46.1711 10.9212 46.1711 11.515V15.4057C47.0127 12.1957 49.4392 10.5627 53.7452 10.5627H55.5266C56.1689 10.5627 56.514 10.91 56.514 11.5038V15.5177C56.514 16.1592 56.1689 16.4561 55.5266 16.4561H53.2992Z" fill="white"/>
<path d="M87.4443 29.5005C87.4443 34.394 85.2675 36.5676 80.0722 36.5676H67.2046C62.0571 36.5676 59.8297 34.394 59.8297 29.5005V17.6465C59.8297 12.7559 62.0571 10.5795 67.2046 10.5795H80.0722C85.2675 10.5795 87.4443 12.7559 87.4443 17.6465V29.5005ZM80.1704 19.5204C80.1704 16.9491 79.6767 16.4561 76.6077 16.4561H70.7168C67.6002 16.4561 67.1037 16.9491 67.1037 19.5204V27.6238C67.1037 30.1924 67.6002 30.6882 70.7168 30.6882H76.6077C79.6767 30.6882 80.1704 30.1924 80.1704 27.6238V19.5204Z" fill="white"/>
<path d="M94.7688 16.4561H92.2918C91.6466 16.4561 91.3015 16.1592 91.3015 15.5178V11.5151C91.3015 10.9212 91.6466 10.5739 92.2918 10.5739H94.766V7.36393C94.7688 2.47052 97.3411 0 102.438 0H108.526C109.218 0 109.516 0.347329 109.516 0.938348V4.94103C109.516 5.58527 109.218 5.87938 108.526 5.87938H105.311C102.587 5.87938 102.043 6.4732 102.043 8.69722V10.5739H108.526C109.218 10.5739 109.516 10.9212 109.516 11.5151V15.5178C109.516 16.1592 109.218 16.4561 108.526 16.4561H102.043V35.6292C102.043 36.223 101.698 36.5676 101.005 36.5676H95.759C95.0661 36.5676 94.7688 36.223 94.7688 35.6292V16.4561Z" fill="white"/>
<path d="M114.961 16.4561H112.489C111.847 16.4561 111.502 16.1592 111.502 15.5178V11.5151C111.502 10.9212 111.847 10.5739 112.489 10.5739H114.966V7.36393C114.961 2.47052 117.539 0 122.63 0H128.718C129.41 0 129.708 0.347329 129.708 0.938348V4.94103C129.708 5.58527 129.41 5.87938 128.718 5.87938H125.5C122.779 5.87938 122.235 6.4732 122.235 8.69722V10.5739H128.718C129.41 10.5739 129.708 10.9212 129.708 11.5151V15.5178C129.708 16.1592 129.41 16.4561 128.718 16.4561H122.235V35.6292C122.235 36.223 121.887 36.5676 121.194 36.5676H115.948C115.255 36.5676 114.961 36.223 114.961 35.6292V16.4561Z" fill="white"/>
<path d="M151.827 46.6485H141.038C136.191 46.6485 134.112 44.7718 134.112 40.1249V39.6319C134.098 39.4993 134.113 39.3651 134.158 39.2394C134.203 39.1137 134.275 38.9996 134.37 38.9057C134.465 38.8118 134.58 38.7404 134.706 38.6969C134.832 38.6534 134.967 38.6388 135.099 38.6543H140.149C140.842 38.6543 141.187 39.0017 141.187 39.6431V39.8896C141.187 40.8784 141.734 41.2733 142.822 41.2733H149.058C152.026 41.2733 152.769 40.5338 152.769 38.0129V30.2176C151.631 32.4416 149.454 33.5789 146.037 33.5789H140.988C135.84 33.5789 133.562 31.4053 133.562 26.5118V11.5151C133.555 11.3856 133.577 11.2562 133.625 11.1357C133.673 11.0153 133.746 10.9066 133.841 10.8172C133.935 10.7278 134.047 10.6598 134.17 10.6178C134.293 10.5758 134.423 10.5608 134.552 10.5739H139.849C140.491 10.5739 140.839 10.9213 140.839 11.5151V24.6492C140.839 27.2177 141.383 27.7135 144.452 27.7135H148.214C151.479 27.7135 152.767 26.3774 152.767 23.6604V11.5151C152.767 10.9213 153.112 10.5739 153.757 10.5739H159.056C159.183 10.5617 159.31 10.5777 159.43 10.6207C159.55 10.6637 159.659 10.7327 159.749 10.8227C159.839 10.9127 159.907 11.0215 159.95 11.1412C159.993 11.2609 160.008 11.3886 159.996 11.5151V38.7916C159.993 43.9763 157.221 46.6485 151.827 46.6485Z" fill="white"/>
</g>
<path d="M7.03409 60.4296C7.03409 57.0105 2.04386 58.4948 2.04386 56.1094C2.04386 55.1155 2.8269 54.5987 3.82229 54.6252C4.9504 54.6384 5.53437 55.3408 5.614 55.9636H6.94119C6.7952 54.5589 5.64054 53.5915 3.87538 53.5915C2.04386 53.5915 0.809573 54.6252 0.809573 56.1492C0.809573 59.5814 5.81308 57.9912 5.81308 60.4826C5.81308 61.3572 5.12294 62.0198 3.95501 62.0198C2.66764 62.0198 2.12349 61.2512 2.04386 60.4826H0.756485C0.783029 62.0066 2.09695 63.0402 3.95501 63.0402C5.95907 63.0402 7.03409 61.7415 7.03409 60.4296Z" fill="#D4C2FF"/>
<path d="M15.2615 55.6853H14.0538V59.6742C14.0538 61.238 13.2176 62.0066 11.9701 62.0066C10.7491 62.0066 9.93949 61.2512 9.93949 59.7802V55.6853H8.74502V59.9393C8.74502 62.0198 10.0589 63.0535 11.7312 63.0535C12.7 63.0535 13.5893 62.6294 14.0538 61.8741V62.9475H15.2615V55.6853Z" fill="#D4C2FF"/>
<path d="M16.8495 59.2899C16.8495 61.5428 18.3492 63.0668 20.2869 63.0668C21.6274 63.0668 22.5697 62.3776 23.0076 61.5958V62.9475H24.2286V55.6853H23.0076V57.0105C22.5829 56.2552 21.6539 55.5661 20.3002 55.5661C18.3492 55.5661 16.8495 57.0238 16.8495 59.2899ZM23.0076 59.3032C23.0076 61.0127 21.8663 62.0066 20.5391 62.0066C19.2119 62.0066 18.0838 60.9994 18.0838 59.2899C18.0838 57.5804 19.2119 56.613 20.5391 56.613C21.8663 56.613 23.0076 57.6201 23.0076 59.3032Z" fill="#D4C2FF"/>
<path d="M31.0157 57.0238V55.6853H29.8079V66.393H31.0157V61.609C31.4669 62.3511 32.4092 63.0668 33.7364 63.0668C35.6874 63.0668 37.1871 61.5428 37.1871 59.2899C37.1871 57.0238 35.6874 55.5661 33.7364 55.5661C32.4092 55.5661 31.4536 56.2552 31.0157 57.0238ZM35.9528 59.2899C35.9528 60.9994 34.8247 62.0066 33.4842 62.0066C32.1703 62.0066 31.0157 61.0127 31.0157 59.3032C31.0157 57.6201 32.1703 56.613 33.4842 56.613C34.8247 56.613 35.9528 57.5804 35.9528 59.2899Z" fill="#D4C2FF"/>
<path d="M38.7768 62.9475H39.9846V53.1409H38.7768V62.9475Z" fill="#D4C2FF"/>
<path d="M41.5917 59.2899C41.5917 61.5428 43.0914 63.0668 45.0291 63.0668C46.3696 63.0668 47.3119 62.3776 47.7499 61.5958V62.9475H48.9709V55.6853H47.7499V57.0105C47.3252 56.2552 46.3961 55.5661 45.0424 55.5661C43.0914 55.5661 41.5917 57.0238 41.5917 59.2899ZM47.7499 59.3032C47.7499 61.0127 46.6085 62.0066 45.2813 62.0066C43.9541 62.0066 42.826 60.9994 42.826 59.2899C42.826 57.5804 43.9541 56.613 45.2813 56.613C46.6085 56.613 47.7499 57.6201 47.7499 59.3032Z" fill="#D4C2FF"/>
<path d="M51.2375 62.9475H52.4452V56.6792H53.9715V55.6853H52.4452V55.1685C52.4452 54.2276 52.8035 53.83 53.8918 53.83V52.8229C52.0338 52.8229 51.2375 53.5517 51.2375 55.1685V55.6853H50.2952V56.6792H51.2375V62.9475Z" fill="#D4C2FF"/>
<path d="M62.281 59.3032C62.281 57.0105 60.6751 55.5661 58.6047 55.5661C56.5476 55.5661 54.9284 57.0105 54.9284 59.3032C54.9284 61.609 56.4945 63.0668 58.5516 63.0668C60.622 63.0668 62.281 61.609 62.281 59.3032ZM56.1627 59.3032C56.1627 57.4744 57.3173 56.613 58.5914 56.613C59.839 56.613 61.0467 57.4744 61.0467 59.3032C61.0467 61.1452 59.8125 62.0066 58.5516 62.0066C57.2908 62.0066 56.1627 61.1452 56.1627 59.3032Z" fill="#D4C2FF"/>
<path d="M65.0767 58.9984C65.0767 57.3153 65.9527 56.7985 67.1073 56.7985H67.4258V55.5528C66.2712 55.5528 65.4882 56.0564 65.0767 56.8648V55.6853H63.869V62.9475H65.0767V58.9984Z" fill="#D4C2FF"/>
<path d="M79.3181 62.9475H80.5126V58.6671C80.5126 56.5865 79.2252 55.5528 77.5662 55.5528C76.4514 55.5528 75.4161 56.1226 74.9914 57.1696C74.5137 56.0829 73.5183 55.5528 72.3238 55.5528C71.3682 55.5528 70.5055 55.9636 70.0278 56.7322V55.6853H68.82V62.9475H70.0278V58.9453C70.0278 57.3816 70.8639 56.5997 72.0849 56.5997C73.2794 56.5997 74.0757 57.3551 74.0757 58.8393V62.9475H75.2702V58.9453C75.2702 57.3816 76.1063 56.5997 77.3273 56.5997C78.5218 56.5997 79.3181 57.3551 79.3181 58.8393V62.9475Z" fill="#D4C2FF"/>
<path d="M82.0424 59.2899C82.0424 61.5428 83.5422 63.0668 85.4799 63.0668C86.8203 63.0668 87.7626 62.3776 88.2006 61.5958V62.9475H89.4216V55.6853H88.2006V57.0105C87.7759 56.2552 86.8469 55.5661 85.4931 55.5661C83.5422 55.5661 82.0424 57.0238 82.0424 59.2899ZM88.2006 59.3032C88.2006 61.0127 87.0592 62.0066 85.732 62.0066C84.4048 62.0066 83.2767 60.9994 83.2767 59.2899C83.2767 57.5804 84.4048 56.613 85.732 56.613C87.0592 56.613 88.2006 57.6201 88.2006 59.3032Z" fill="#D4C2FF"/>
<path d="M94.5497 59.2899C94.5497 61.5428 96.0494 63.0668 98.0003 63.0668C99.3275 63.0668 100.27 62.3909 100.708 61.5825V62.9475H101.929V53.1409H100.708V56.984C100.203 56.1492 99.155 55.5661 98.0136 55.5661C96.0494 55.5661 94.5497 57.0238 94.5497 59.2899ZM100.708 59.3032C100.708 61.0127 99.5664 62.0066 98.2392 62.0066C96.912 62.0066 95.7839 60.9994 95.7839 59.2899C95.7839 57.5804 96.912 56.613 98.2392 56.613C99.5664 56.613 100.708 57.6201 100.708 59.3032Z" fill="#D4C2FF"/>
<path d="M107.062 56.5865C108.31 56.5865 109.371 57.3683 109.358 58.7863H104.766C104.899 57.3683 105.881 56.5865 107.062 56.5865ZM110.46 60.7079H109.159C108.894 61.4898 108.204 62.0463 107.115 62.0463C105.881 62.0463 104.846 61.238 104.753 59.767H110.566C110.592 59.5152 110.606 59.3032 110.606 59.0381C110.606 57.0503 109.225 55.5661 107.115 55.5661C104.992 55.5661 103.519 57.0105 103.519 59.3032C103.519 61.609 105.045 63.0668 107.115 63.0668C108.92 63.0668 110.088 62.0331 110.46 60.7079Z" fill="#D4C2FF"/>
<path d="M4.11427 73.5197C5.36183 73.5197 6.42358 74.3016 6.41031 75.7196H1.81824C1.95096 74.3016 2.93308 73.5197 4.11427 73.5197ZM7.51188 77.6411H6.21123C5.94579 78.423 5.25566 78.9796 4.16736 78.9796C2.93308 78.9796 1.89787 78.1712 1.80496 76.7002H7.61805C7.6446 76.4484 7.65787 76.2364 7.65787 75.9714C7.65787 73.9835 6.27759 72.4993 4.16736 72.4993C2.04386 72.4993 0.570679 73.9438 0.570679 76.2364C0.570679 78.5423 2.09695 80 4.16736 80C5.97234 80 7.14026 78.9663 7.51188 77.6411Z" fill="#D4C2FF"/>
<path d="M14.4812 77.9062C14.4281 75.3087 10.2076 76.2496 10.2076 74.5269C10.2076 73.9438 10.7385 73.5197 11.6277 73.5197C12.5966 73.5197 13.154 74.0498 13.2071 74.7787H14.4148C14.3352 73.3607 13.2734 72.4993 11.6675 72.4993C10.0484 72.4993 8.99988 73.4137 8.99988 74.5269C8.99988 77.2303 13.3 76.2894 13.3 77.9062C13.3 78.5025 12.7691 78.9796 11.8135 78.9796C10.7916 78.9796 10.1678 78.4495 10.1014 77.7471H8.85389C8.93352 79.0723 10.128 80 11.8268 80C13.4327 80 14.4812 79.0988 14.4812 77.9062Z" fill="#D4C2FF"/>
<path d="M16.4515 77.8929C16.4515 79.3506 17.1815 79.8807 18.4689 79.8807H19.5572V78.8603H18.6679C17.9247 78.8603 17.6593 78.6085 17.6593 77.8929V73.6125H19.5572V72.6186H17.6593V70.7898H16.4515V72.6186H15.5092V73.6125H16.4515V77.8929Z" fill="#D4C2FF"/>
<path d="M27.4706 72.6186H26.2629V76.6075C26.2629 78.1712 25.4267 78.9398 24.1792 78.9398C22.9582 78.9398 22.1486 78.1845 22.1486 76.7135V72.6186H20.9541V76.8725C20.9541 78.9531 22.268 79.9867 23.9403 79.9867C24.9091 79.9867 25.7984 79.5627 26.2629 78.8073V79.8807H27.4706V72.6186Z" fill="#D4C2FF"/>
<path d="M29.0586 76.2231C29.0586 78.476 30.5583 80 32.5093 80C33.8365 80 34.7788 79.3241 35.2167 78.5158V79.8807H36.4378V70.0742H35.2167V73.9173C34.7124 73.0824 33.6639 72.4993 32.5225 72.4993C30.5583 72.4993 29.0586 73.957 29.0586 76.2231ZM35.2167 76.2364C35.2167 77.9459 34.0754 78.9398 32.7482 78.9398C31.421 78.9398 30.2929 77.9327 30.2929 76.2231C30.2929 74.5136 31.421 73.5462 32.7482 73.5462C34.0754 73.5462 35.2167 74.5534 35.2167 76.2364Z" fill="#D4C2FF"/>
<path d="M45.3801 76.2364C45.3801 73.9438 43.7742 72.4993 41.7038 72.4993C39.6466 72.4993 38.0275 73.9438 38.0275 76.2364C38.0275 78.5423 39.5936 80 41.6507 80C43.7211 80 45.3801 78.5423 45.3801 76.2364ZM39.2618 76.2364C39.2618 74.4076 40.4164 73.5462 41.6905 73.5462C42.9381 73.5462 44.1458 74.4076 44.1458 76.2364C44.1458 78.0784 42.9115 78.9398 41.6507 78.9398C40.3899 78.9398 39.2618 78.0784 39.2618 76.2364Z" fill="#D4C2FF"/>
<path d="M52.1972 77.9062C52.1441 75.3087 47.9236 76.2496 47.9236 74.5269C47.9236 73.9438 48.4545 73.5197 49.3437 73.5197C50.3126 73.5197 50.87 74.0498 50.9231 74.7787H52.1308C52.0512 73.3607 50.9894 72.4993 49.3835 72.4993C47.7644 72.4993 46.7159 73.4137 46.7159 74.5269C46.7159 77.2303 51.016 76.2894 51.016 77.9062C51.016 78.5025 50.4851 78.9796 49.5295 78.9796C48.5076 78.9796 47.8838 78.4495 47.8175 77.7471H46.5699C46.6495 79.0723 47.844 80 49.5428 80C51.1487 80 52.1972 79.0988 52.1972 77.9062Z" fill="#D4C2FF"/>
<path d="M64.3418 76.2364C64.3418 73.9438 62.7359 72.4993 60.6655 72.4993C58.6083 72.4993 56.9892 73.9438 56.9892 76.2364C56.9892 78.5423 58.5553 80 60.6124 80C62.6828 80 64.3418 78.5423 64.3418 76.2364ZM58.2235 76.2364C58.2235 74.4076 59.3781 73.5462 60.6522 73.5462C61.8998 73.5462 63.1075 74.4076 63.1075 76.2364C63.1075 78.0784 61.8732 78.9398 60.6124 78.9398C59.3516 78.9398 58.2235 78.0784 58.2235 76.2364Z" fill="#D4C2FF"/>
<path d="M71.2518 79.8807H72.4463V75.6003C72.4463 73.5197 71.1589 72.486 69.4734 72.486C68.4912 72.486 67.6153 72.8969 67.1375 73.6522V72.6186H65.9298V79.8807H67.1375V75.8653C67.1375 74.3016 67.9869 73.533 69.2212 73.533C70.4422 73.533 71.2518 74.2883 71.2518 75.7726V79.8807Z" fill="#D4C2FF"/>
<path d="M74.4191 79.8807H75.6268V70.0742H74.4191V79.8807Z" fill="#D4C2FF"/>
<path d="M77.6852 79.8807H78.893V72.6186H77.6852V79.8807ZM78.309 71.4391C78.747 71.4391 79.1053 71.0813 79.1053 70.6175C79.1053 70.1537 78.747 69.7959 78.309 69.7959C77.8445 69.7959 77.4862 70.1537 77.4862 70.6175C77.4862 71.0813 77.8445 71.4391 78.309 71.4391Z" fill="#D4C2FF"/>
<path d="M86.2734 79.8807H87.4678V75.6003C87.4678 73.5197 86.1805 72.486 84.4949 72.486C83.5128 72.486 82.6369 72.8969 82.1591 73.6522V72.6186H80.9514V79.8807H82.1591V75.8653C82.1591 74.3016 83.0085 73.533 84.2428 73.533C85.4638 73.533 86.2734 74.2883 86.2734 75.7726V79.8807Z" fill="#D4C2FF"/>
<path d="M92.5331 73.5197C93.7806 73.5197 94.8424 74.3016 94.8291 75.7196H90.237C90.3697 74.3016 91.3519 73.5197 92.5331 73.5197ZM95.9307 77.6411H94.63C94.3646 78.423 93.6744 78.9796 92.5861 78.9796C91.3519 78.9796 90.3166 78.1712 90.2237 76.7002H96.0368C96.0634 76.4484 96.0766 76.2364 96.0766 75.9714C96.0766 73.9835 94.6964 72.4993 92.5861 72.4993C90.4626 72.4993 88.9895 73.9438 88.9895 76.2364C88.9895 78.5423 90.5157 80 92.5861 80C94.3911 80 95.559 78.9663 95.9307 77.6411Z" fill="#D4C2FF"/>
<path d="M98.852 79.1386C98.852 78.6748 98.4937 78.317 98.0557 78.317C97.5912 78.317 97.2329 78.6748 97.2329 79.1386C97.2329 79.6024 97.5912 79.9602 98.0557 79.9602C98.4937 79.9602 98.852 79.6024 98.852 79.1386Z" fill="#D4C2FF"/>
<defs>
<clipPath id="clip0">
<rect width="160" height="46.7505" fill="white"/>
</clipPath>
</defs>
</svg>
