<svg width="120" height="120" viewBox="0 0 120 120" fill="none" xmlns="http://www.w3.org/2000/svg">
<path d="M15 17.9999H42C46.7739 17.9999 51.3523 19.9666 54.7279 23.4673C58.1036 26.968 60 31.7159 60 36.6666V102C60 98.2869 58.5777 94.7259 56.0459 92.1004C53.5142 89.4749 50.0804 87.9999 46.5 87.9999H15V17.9999Z" stroke="white" stroke-width="6" stroke-linecap="round" stroke-linejoin="round"/>
<path d="M105 17.9999H78C73.2261 17.9999 68.6477 19.9666 65.2721 23.4673C61.8964 26.968 60 31.7159 60 36.6666V102C60 98.2869 61.4223 94.7259 63.9541 92.1004C66.4858 89.4749 69.9196 87.9999 73.5 87.9999H105V17.9999Z" stroke="white" stroke-width="6" stroke-linecap="round" stroke-linejoin="round"/>
</svg>
