<svg width="281" height="535" viewBox="0 0 281 535" fill="none" xmlns="http://www.w3.org/2000/svg">
<path fill-rule="evenodd" clip-rule="evenodd" d="M250.506 496C252.926 496 254.878 497.949 254.878 500.342C254.878 502.727 252.925 504.685 250.506 504.685C249.362 504.685 248.322 504.249 247.544 503.537C247.533 503.525 247.521 503.512 247.509 503.5C247.483 503.473 247.455 503.449 247.427 503.425C246.627 502.638 246.133 501.546 246.133 500.342C246.133 497.949 248.086 496 250.506 496ZM245.42 504.164C244.612 503.102 244.133 501.779 244.133 500.342C244.133 496.834 246.992 494 250.506 494C254.02 494 256.878 496.834 256.878 500.342C256.878 503.84 254.021 506.685 250.506 506.685C249.153 506.685 247.898 506.265 246.865 505.548L243.704 508.683C243.312 509.072 242.679 509.07 242.29 508.678C241.901 508.285 241.904 507.652 242.296 507.263L245.42 504.164Z" fill="#9871F5"/>
<path d="M63.9932 439.973L56 439.973" stroke="#9871F5" stroke-width="2" stroke-miterlimit="10" stroke-linecap="round" stroke-linejoin="round"/>
<path d="M59.9976 443.958L59.9976 436" stroke="#9871F5" stroke-width="2" stroke-miterlimit="10" stroke-linecap="round" stroke-linejoin="round"/>
<path d="M229.366 25.3045C226.689 25.3045 224.508 23.1452 224.508 20.4739C224.508 17.812 226.68 15.6433 229.366 15.6433C232.043 15.6433 234.224 17.8027 234.224 20.4739C234.214 23.1452 232.043 25.3045 229.366 25.3045Z" stroke="#9871F5" stroke-width="2" stroke-miterlimit="10" stroke-linecap="round" stroke-linejoin="round"/>
<path d="M275.142 309.576C272.465 309.576 270.285 307.417 270.285 304.746C270.285 302.084 272.456 299.915 275.142 299.915C277.819 299.915 280 302.075 280 304.746C279.991 307.417 277.819 309.576 275.142 309.576Z" stroke="#9871F5" stroke-width="2" stroke-miterlimit="10" stroke-linecap="round" stroke-linejoin="round"/>
<path d="M107.83 12.9559C106.864 12.9559 106.081 13.7435 106.081 14.7152C106.081 15.6868 106.864 16.4745 107.83 16.4745C108.797 16.4745 109.58 15.6868 109.58 14.7152C109.58 13.7435 108.797 12.9559 107.83 12.9559Z" fill="#9871F5"/>
<path d="M107.83 25.0003C106.864 25.0003 106.081 25.788 106.081 26.7596C106.081 27.7312 106.864 28.5189 107.83 28.5189C108.797 28.5189 109.58 27.7312 109.58 26.7596C109.58 25.788 108.797 25.0003 107.83 25.0003Z" fill="#9871F5"/>
<path d="M95.6099 12.9559C94.6436 12.9559 93.8603 13.7435 93.8603 14.7152C93.8603 15.6868 94.6436 16.4745 95.6099 16.4745C96.5761 16.4745 97.3594 15.6868 97.3594 14.7152C97.3594 13.7435 96.5761 12.9559 95.6099 12.9559Z" fill="#9871F5"/>
<path d="M95.6099 25.0003C94.6436 25.0003 93.8603 25.788 93.8603 26.7596C93.8603 27.7312 94.6436 28.5189 95.6099 28.5189C96.5761 28.5189 97.3594 27.7312 97.3594 26.7596C97.3594 25.788 96.5761 25.0003 95.6099 25.0003Z" fill="#9871F5"/>
<path d="M83.4003 12.9559C82.434 12.9559 81.6508 13.7435 81.6508 14.7152C81.6508 15.6868 82.434 16.4745 83.4003 16.4745C84.3665 16.4745 85.1498 15.6868 85.1498 14.7152C85.1498 13.7435 84.3665 12.9559 83.4003 12.9559Z" fill="#9871F5"/>
<path d="M83.4003 25.0003C82.434 25.0003 81.6508 25.788 81.6508 26.7596C81.6508 27.7312 82.434 28.5189 83.4003 28.5189C84.3665 28.5189 85.1498 27.7312 85.1498 26.7596C85.1498 25.788 84.3665 25.0003 83.4003 25.0003Z" fill="#9871F5"/>
<path d="M71.1801 12.9559C70.2138 12.9559 69.4305 13.7435 69.4305 14.7152C69.4305 15.6868 70.2138 16.4745 71.1801 16.4745C72.1463 16.4745 72.9296 15.6868 72.9296 14.7152C72.9296 13.7435 72.1463 12.9559 71.1801 12.9559Z" fill="#9871F5"/>
<path d="M71.1801 25.0003C70.2138 25.0003 69.4305 25.788 69.4305 26.7596C69.4305 27.7312 70.2138 28.5189 71.1801 28.5189C72.1463 28.5189 72.9296 27.7312 72.9296 26.7596C72.9296 25.788 72.1463 25.0003 71.1801 25.0003Z" fill="#9871F5"/>
<path d="M58.9695 12.9559C58.0033 12.9559 57.22 13.7435 57.22 14.7152C57.22 15.6868 58.0033 16.4745 58.9695 16.4745C59.9357 16.4745 60.719 15.6868 60.719 14.7152C60.719 13.7435 59.9357 12.9559 58.9695 12.9559Z" fill="#9871F5"/>
<path d="M58.9695 25.0003C58.0033 25.0003 57.22 25.788 57.22 26.7596C57.22 27.7312 58.0033 28.5189 58.9695 28.5189C59.9357 28.5189 60.719 27.7312 60.719 26.7596C60.719 25.788 59.9357 25.0003 58.9695 25.0003Z" fill="#9871F5"/>
<path d="M46.7496 12.9559C45.7834 12.9559 45.0001 13.7435 45.0001 14.7152C45.0001 15.6868 45.7834 16.4745 46.7496 16.4745C47.7159 16.4745 48.4991 15.6868 48.4991 14.7152C48.4991 13.7435 47.7159 12.9559 46.7496 12.9559Z" fill="#9871F5"/>
<path d="M46.7496 25.0003C45.7834 25.0003 45.0001 25.788 45.0001 26.7596C45.0001 27.7312 45.7834 28.5189 46.7496 28.5189C47.7159 28.5189 48.4991 27.7312 48.4991 26.7596C48.4991 25.788 47.7159 25.0003 46.7496 25.0003Z" fill="#9871F5"/>
<path d="M107.831 0.67582C106.864 0.67582 106.081 1.4635 106.081 2.43514C106.081 3.40678 106.864 4.19446 107.831 4.19446C108.797 4.19446 109.58 3.40678 109.58 2.43514C109.58 1.4635 108.797 0.67582 107.831 0.67582Z" fill="#9871F5"/>
<path d="M95.61 0.67582C94.6438 0.67582 93.8605 1.4635 93.8605 2.43514C93.8605 3.40678 94.6438 4.19446 95.61 4.19446C96.5762 4.19446 97.3595 3.40678 97.3595 2.43514C97.3595 1.4635 96.5762 0.67582 95.61 0.67582Z" fill="#9871F5"/>
<path d="M83.4 0.67582C82.4338 0.67582 81.6505 1.4635 81.6505 2.43514C81.6505 3.40678 82.4338 4.19446 83.4 4.19446C84.3663 4.19446 85.1495 3.40678 85.1495 2.43514C85.1495 1.4635 84.3663 0.67582 83.4 0.67582Z" fill="#9871F5"/>
<path d="M71.1798 0.67582C70.2136 0.67582 69.4303 1.4635 69.4303 2.43514C69.4303 3.40678 70.2136 4.19446 71.1798 4.19446C72.146 4.19446 72.9293 3.40678 72.9293 2.43514C72.9293 1.4635 72.146 0.67582 71.1798 0.67582Z" fill="#9871F5"/>
<path d="M58.9694 0.67582C58.0031 0.67582 57.2199 1.4635 57.2199 2.43514C57.2199 3.40678 58.0031 4.19446 58.9694 4.19446C59.9356 4.19446 60.7189 3.40678 60.7189 2.43514C60.7189 1.4635 59.9356 0.67582 58.9694 0.67582Z" fill="#9871F5"/>
<path d="M46.7496 0.67582C45.7834 0.67582 45.0001 1.4635 45.0001 2.43514C45.0001 3.40678 45.7834 4.19446 46.7496 4.19446C47.7159 4.19446 48.4991 3.40678 48.4991 2.43514C48.4991 1.4635 47.7159 0.67582 46.7496 0.67582Z" fill="#9871F5"/>
<path d="M234.91 377.826C234.91 378.792 235.697 379.575 236.669 379.575C237.641 379.575 238.428 378.792 238.428 377.826C238.428 376.86 237.641 376.076 236.669 376.076C235.697 376.076 234.91 376.86 234.91 377.826Z" fill="#9871F5"/>
<path d="M234.91 390.037C234.91 391.004 235.698 391.787 236.669 391.787C237.641 391.787 238.429 391.004 238.429 390.037C238.429 389.071 237.641 388.288 236.669 388.288C235.698 388.288 234.91 389.071 234.91 390.037Z" fill="#9871F5"/>
<path d="M234.91 402.256C234.91 403.222 235.698 404.005 236.669 404.005C237.641 404.005 238.429 403.222 238.429 402.256C238.429 401.29 237.641 400.506 236.669 400.506C235.698 400.506 234.91 401.29 234.91 402.256Z" fill="#9871F5"/>
<path d="M222.621 377.826C222.621 378.792 223.408 379.575 224.38 379.575C225.352 379.575 226.139 378.792 226.139 377.826C226.139 376.859 225.352 376.076 224.38 376.076C223.408 376.076 222.621 376.859 222.621 377.826Z" fill="#9871F5"/>
<path d="M222.621 390.037C222.621 391.004 223.408 391.787 224.38 391.787C225.352 391.787 226.139 391.004 226.139 390.037C226.139 389.071 225.352 388.288 224.38 388.288C223.408 388.288 222.621 389.071 222.621 390.037Z" fill="#9871F5"/>
<path d="M222.621 402.256C222.621 403.222 223.408 404.005 224.38 404.005C225.352 404.005 226.139 403.222 226.139 402.256C226.139 401.29 225.352 400.506 224.38 400.506C223.408 400.506 222.621 401.29 222.621 402.256Z" fill="#9871F5"/>
<path d="M274.289 139.75C274.289 140.716 275.077 141.499 276.049 141.499C277.02 141.499 277.808 140.716 277.808 139.75C277.808 138.784 277.02 138 276.049 138C275.077 138 274.289 138.784 274.289 139.75Z" fill="#9871F5"/>
<path d="M274.289 151.96C274.289 152.926 275.077 153.709 276.049 153.709C277.02 153.709 277.808 152.926 277.808 151.96C277.808 150.994 277.02 150.21 276.049 150.21C275.077 150.21 274.289 150.994 274.289 151.96Z" fill="#9871F5"/>
<path d="M274.289 164.18C274.289 165.146 275.077 165.929 276.049 165.929C277.02 165.929 277.808 165.146 277.808 164.18C277.808 163.214 277.02 162.43 276.049 162.43C275.077 162.43 274.289 163.214 274.289 164.18Z" fill="#9871F5"/>
<path d="M262 139.75C262 140.716 262.788 141.499 263.759 141.499C264.731 141.499 265.519 140.716 265.519 139.75C265.519 138.783 264.731 138 263.759 138C262.788 138 262 138.783 262 139.75Z" fill="#9871F5"/>
<path d="M262 151.96C262 152.926 262.788 153.71 263.759 153.71C264.731 153.71 265.519 152.926 265.519 151.96C265.519 150.994 264.731 150.211 263.759 150.211C262.788 150.211 262 150.994 262 151.96Z" fill="#9871F5"/>
<path d="M262 164.18C262 165.147 262.788 165.93 263.759 165.93C264.731 165.93 265.519 165.147 265.519 164.18C265.519 163.214 264.731 162.431 263.759 162.431C262.788 162.431 262 163.214 262 164.18Z" fill="#9871F5"/>
<path d="M98.7077 532.4C98.7077 533.366 99.4953 534.149 100.467 534.149C101.439 534.149 102.226 533.366 102.226 532.4C102.226 531.433 101.439 530.65 100.467 530.65C99.4954 530.65 98.7077 531.433 98.7077 532.4Z" fill="#9871F5"/>
<path d="M86.4184 532.4C86.4184 533.366 87.2061 534.149 88.1777 534.149C89.1493 534.149 89.937 533.366 89.937 532.4C89.937 531.434 89.1493 530.65 88.1777 530.65C87.2061 530.65 86.4184 531.434 86.4184 532.4Z" fill="#9871F5"/>
<path d="M74.1385 532.4C74.1385 533.366 74.9261 534.149 75.8978 534.149C76.8694 534.149 77.6571 533.366 77.6571 532.4C77.6571 531.434 76.8694 530.65 75.8978 530.65C74.9261 530.65 74.1385 531.434 74.1385 532.4Z" fill="#9871F5"/>
<path d="M61.8492 532.4C61.8492 533.366 62.6369 534.149 63.6085 534.149C64.5801 534.149 65.3678 533.366 65.3678 532.4C65.3678 531.434 64.5801 530.65 63.6085 530.65C62.6369 530.65 61.8492 531.434 61.8492 532.4Z" fill="#9871F5"/>
<path d="M49.5694 532.4C49.5694 533.366 50.357 534.149 51.3287 534.149C52.3003 534.149 53.088 533.366 53.088 532.4C53.088 531.434 52.3003 530.65 51.3287 530.65C50.357 530.65 49.5694 531.434 49.5694 532.4Z" fill="#9871F5"/>
<path d="M37.2802 532.4C37.2802 533.366 38.0679 534.149 39.0395 534.149C40.0111 534.149 40.7988 533.366 40.7988 532.4C40.7988 531.434 40.0111 530.65 39.0395 530.65C38.0679 530.65 37.2802 531.434 37.2802 532.4Z" fill="#9871F5"/>
<path d="M25.0002 532.4C25.0002 533.366 25.7878 534.149 26.7595 534.149C27.7311 534.149 28.5188 533.366 28.5188 532.4C28.5188 531.434 27.7311 530.65 26.7595 530.65C25.7878 530.65 25.0002 531.434 25.0002 532.4Z" fill="#9871F5"/>
<path d="M98.7077 520.18C98.7077 521.146 99.4953 521.93 100.467 521.93C101.439 521.93 102.226 521.146 102.226 520.18C102.226 519.214 101.439 518.431 100.467 518.431C99.4954 518.431 98.7077 519.214 98.7077 520.18Z" fill="#9871F5"/>
<path d="M86.4184 520.18C86.4184 521.146 87.2061 521.93 88.1777 521.93C89.1493 521.93 89.937 521.146 89.937 520.18C89.937 519.214 89.1493 518.431 88.1777 518.431C87.2061 518.431 86.4184 519.214 86.4184 520.18Z" fill="#9871F5"/>
<path d="M74.1385 520.18C74.1385 521.146 74.9261 521.93 75.8978 521.93C76.8694 521.93 77.6571 521.146 77.6571 520.18C77.6571 519.214 76.8694 518.431 75.8978 518.431C74.9261 518.431 74.1385 519.214 74.1385 520.18Z" fill="#9871F5"/>
<path d="M61.8492 520.18C61.8492 521.146 62.6369 521.93 63.6085 521.93C64.5801 521.93 65.3678 521.146 65.3678 520.18C65.3678 519.214 64.5801 518.431 63.6085 518.431C62.6369 518.431 61.8492 519.214 61.8492 520.18Z" fill="#9871F5"/>
<path d="M49.5694 520.18C49.5694 521.146 50.357 521.93 51.3287 521.93C52.3003 521.93 53.088 521.146 53.088 520.18C53.088 519.214 52.3003 518.431 51.3287 518.431C50.357 518.431 49.5694 519.214 49.5694 520.18Z" fill="#9871F5"/>
<path d="M37.2802 520.18C37.2802 521.146 38.0679 521.93 39.0395 521.93C40.0111 521.93 40.7988 521.146 40.7988 520.18C40.7988 519.214 40.0111 518.431 39.0395 518.431C38.0679 518.431 37.2802 519.214 37.2802 520.18Z" fill="#9871F5"/>
<path d="M25.0002 520.18C25.0002 521.146 25.7878 521.93 26.7595 521.93C27.7311 521.93 28.5188 521.146 28.5188 520.18C28.5188 519.214 27.7311 518.431 26.7595 518.431C25.7878 518.431 25.0002 519.214 25.0002 520.18Z" fill="#9871F5"/>
<path d="M98.7077 507.969C98.7077 508.935 99.4953 509.719 100.467 509.719C101.439 509.719 102.226 508.935 102.226 507.969C102.226 507.003 101.439 506.22 100.467 506.22C99.4954 506.22 98.7077 507.003 98.7077 507.969Z" fill="#9871F5"/>
<path d="M86.4184 507.969C86.4184 508.935 87.2061 509.719 88.1777 509.719C89.1493 509.719 89.937 508.935 89.937 507.969C89.937 507.003 89.1493 506.22 88.1777 506.22C87.2061 506.22 86.4184 507.003 86.4184 507.969Z" fill="#9871F5"/>
<path d="M74.1385 507.969C74.1385 508.935 74.9261 509.719 75.8978 509.719C76.8694 509.719 77.6571 508.935 77.6571 507.969C77.6571 507.003 76.8694 506.22 75.8978 506.22C74.9261 506.22 74.1385 507.003 74.1385 507.969Z" fill="#9871F5"/>
<path d="M61.8492 507.969C61.8492 508.935 62.6369 509.719 63.6085 509.719C64.5801 509.719 65.3678 508.935 65.3678 507.969C65.3678 507.003 64.5801 506.22 63.6085 506.22C62.6369 506.22 61.8492 507.003 61.8492 507.969Z" fill="#9871F5"/>
<path d="M49.5694 507.969C49.5694 508.935 50.357 509.719 51.3287 509.719C52.3003 509.719 53.088 508.935 53.088 507.969C53.088 507.003 52.3003 506.22 51.3287 506.22C50.357 506.22 49.5694 507.003 49.5694 507.969Z" fill="#9871F5"/>
<path d="M37.2802 507.969C37.2802 508.935 38.0679 509.719 39.0395 509.719C40.0111 509.719 40.7988 508.935 40.7988 507.969C40.7988 507.003 40.0111 506.22 39.0395 506.22C38.0679 506.22 37.2802 507.003 37.2802 507.969Z" fill="#9871F5"/>
<path d="M25.0002 507.969C25.0002 508.935 25.7878 509.719 26.7595 509.719C27.7311 509.719 28.5188 508.935 28.5188 507.969C28.5188 507.003 27.7311 506.22 26.7595 506.22C25.7878 506.22 25.0002 507.003 25.0002 507.969Z" fill="#9871F5"/>
<path d="M98.7067 495.75C98.7067 496.716 99.4944 497.5 100.466 497.5C101.438 497.5 102.225 496.716 102.225 495.75C102.225 494.784 101.438 494 100.466 494C99.4944 494 98.7067 494.784 98.7067 495.75Z" fill="#9871F5"/>
<path d="M86.4184 495.75C86.4184 496.716 87.2061 497.499 88.1777 497.499C89.1493 497.499 89.937 496.716 89.937 495.75C89.937 494.783 89.1493 494 88.1777 494C87.2061 494 86.4184 494.783 86.4184 495.75Z" fill="#9871F5"/>
<path d="M74.1385 495.75C74.1385 496.716 74.9261 497.499 75.8978 497.499C76.8694 497.499 77.6571 496.716 77.6571 495.75C77.6571 494.783 76.8694 494 75.8978 494C74.9261 494 74.1385 494.783 74.1385 495.75Z" fill="#9871F5"/>
<path d="M61.8492 495.75C61.8492 496.716 62.6369 497.499 63.6085 497.499C64.5801 497.499 65.3678 496.716 65.3678 495.75C65.3678 494.783 64.5801 494 63.6085 494C62.6369 494 61.8492 494.783 61.8492 495.75Z" fill="#9871F5"/>
<path d="M49.5694 495.75C49.5694 496.716 50.357 497.499 51.3287 497.499C52.3003 497.499 53.088 496.716 53.088 495.75C53.088 494.783 52.3003 494 51.3287 494C50.357 494 49.5694 494.783 49.5694 495.75Z" fill="#9871F5"/>
<path d="M37.2802 495.75C37.2802 496.716 38.0679 497.499 39.0395 497.499C40.0111 497.499 40.7988 496.716 40.7988 495.75C40.7988 494.783 40.0111 494 39.0395 494C38.0679 494 37.2802 494.783 37.2802 495.75Z" fill="#9871F5"/>
<path d="M25.0002 495.75C25.0002 496.716 25.7878 497.499 26.7595 497.499C27.7311 497.499 28.5188 496.716 28.5188 495.75C28.5188 494.783 27.7311 494 26.7595 494C25.7878 494 25.0002 494.783 25.0002 495.75Z" fill="#9871F5"/>
<path d="M13.312 125.352C13.12 125.373 12.832 125.384 12.448 125.384C8.928 125.384 6.19733 124.445 4.256 122.568C2.31467 120.669 1.344 117.821 1.344 114.024C1.344 110.227 2.31467 107.389 4.256 105.512C6.19733 103.613 8.928 102.664 12.448 102.664C15.9893 102.664 18.7307 103.613 20.672 105.512C22.6133 107.389 23.584 110.227 23.584 114.024C23.584 116.669 23.104 118.856 22.144 120.584C21.184 122.312 19.7973 123.571 17.984 124.36L22.976 129.16H16.864L13.312 125.352ZM12.448 121.448C14.5387 121.448 16.1173 120.851 17.184 119.656C18.272 118.44 18.816 116.723 18.816 114.504V113.544C18.816 111.325 18.272 109.619 17.184 108.424C16.1173 107.208 14.5387 106.6 12.448 106.6C10.3573 106.6 8.77867 107.208 7.712 108.424C6.64533 109.619 6.112 111.325 6.112 113.544V114.504C6.112 116.723 6.64533 118.44 7.712 119.656C8.77867 120.851 10.3573 121.448 12.448 121.448ZM32.6503 125.384C30.9223 125.384 29.5569 124.915 28.5543 123.976C27.5729 123.037 27.0823 121.533 27.0823 119.464V108.168H31.4663V118.536C31.4663 119.581 31.7116 120.339 32.2023 120.808C32.6929 121.277 33.4183 121.512 34.3783 121.512C35.3596 121.512 36.1703 121.171 36.8103 120.488C37.4716 119.784 37.8023 118.92 37.8023 117.896V108.168H42.1863V125H38.4423L38.1223 122.792H37.8983C36.5329 124.52 34.7836 125.384 32.6503 125.384ZM53.6848 125.384C50.9754 125.384 48.9488 124.669 47.6048 123.24C46.2821 121.811 45.6208 119.592 45.6208 116.584C45.6208 113.576 46.2821 111.357 47.6048 109.928C48.9488 108.499 50.9754 107.784 53.6848 107.784C56.1808 107.784 58.0474 108.509 59.2848 109.96C60.5221 111.389 61.1408 113.597 61.1408 116.584V117.608H50.0688C50.1114 119.101 50.4101 120.211 50.9648 120.936C51.5194 121.64 52.4474 121.992 53.7488 121.992C54.6661 121.992 55.4021 121.736 55.9568 121.224C56.5328 120.712 56.8208 119.987 56.8208 119.048H61.1408C61.1408 121.16 60.4581 122.749 59.0928 123.816C57.7274 124.861 55.9248 125.384 53.6848 125.384ZM56.5968 114.696C56.5968 112.371 55.6261 111.208 53.6848 111.208C52.5754 111.208 51.7328 111.496 51.1568 112.072C50.6021 112.648 50.2608 113.523 50.1328 114.696H56.5968ZM64.522 108.168H68.266L68.618 110.888H68.842C69.2047 109.928 69.674 109.171 70.25 108.616C70.826 108.061 71.5833 107.784 72.522 107.784C73.1407 107.784 73.6953 107.88 74.186 108.072V112.168H72.97C71.5407 112.168 70.506 112.563 69.866 113.352C69.226 114.12 68.906 115.293 68.906 116.872V125H64.522V108.168ZM92.5858 125.384C90.2391 125.384 88.3938 124.904 87.0498 123.944C85.7271 122.963 85.0658 121.661 85.0658 120.04L85.0978 119.656H89.3538V119.88C89.3751 120.627 89.7058 121.171 90.3458 121.512C91.0071 121.832 91.8071 121.992 92.7458 121.992C93.6204 121.992 94.3671 121.875 94.9858 121.64C95.6044 121.405 95.9138 121.021 95.9138 120.488C95.9138 119.891 95.5938 119.443 94.9538 119.144C94.3351 118.845 93.3538 118.547 92.0098 118.248C90.6231 117.928 89.4924 117.608 88.6178 117.288C87.7431 116.947 86.9858 116.424 86.3458 115.72C85.7058 115.016 85.3858 114.077 85.3858 112.904C85.3858 111.261 86.0684 110.003 87.4338 109.128C88.8204 108.232 90.6018 107.784 92.7778 107.784C94.8044 107.784 96.4791 108.2 97.8018 109.032C99.1244 109.843 99.7858 110.952 99.7858 112.36L99.7537 113.096H95.4978V112.904C95.4978 112.349 95.2311 111.923 94.6978 111.624C94.1858 111.325 93.4924 111.176 92.6178 111.176C91.7431 111.176 91.0498 111.293 90.5378 111.528C90.0258 111.763 89.7698 112.093 89.7698 112.52C89.7698 113.053 90.0578 113.448 90.6338 113.704C91.2311 113.96 92.1804 114.216 93.4818 114.472C94.9111 114.792 96.0738 115.112 96.9698 115.432C97.8658 115.752 98.6444 116.275 99.3058 117C99.9671 117.725 100.298 118.707 100.298 119.944C100.298 123.571 97.7271 125.384 92.5858 125.384ZM110.591 125.384C107.882 125.384 105.855 124.669 104.511 123.24C103.188 121.811 102.527 119.592 102.527 116.584C102.527 113.576 103.188 111.357 104.511 109.928C105.855 108.499 107.882 107.784 110.591 107.784C113.087 107.784 114.954 108.509 116.191 109.96C117.428 111.389 118.047 113.597 118.047 116.584V117.608H106.975C107.018 119.101 107.316 120.211 107.871 120.936C108.426 121.64 109.354 121.992 110.655 121.992C111.572 121.992 112.308 121.736 112.863 121.224C113.439 120.712 113.727 119.987 113.727 119.048H118.047C118.047 121.16 117.364 122.749 115.999 123.816C114.634 124.861 112.831 125.384 110.591 125.384ZM113.503 114.696C113.503 112.371 112.532 111.208 110.591 111.208C109.482 111.208 108.639 111.496 108.063 112.072C107.508 112.648 107.167 113.523 107.039 114.696H113.503ZM121.428 108.168H125.172L125.524 110.888H125.748C126.111 109.928 126.58 109.171 127.156 108.616C127.732 108.061 128.49 107.784 129.428 107.784C130.047 107.784 130.602 107.88 131.092 108.072V112.168H129.876C128.447 112.168 127.412 112.563 126.772 113.352C126.132 114.12 125.812 115.293 125.812 116.872V125H121.428V108.168ZM7.744 162.384C6.016 162.384 4.65067 161.915 3.648 160.976C2.66667 160.037 2.176 158.533 2.176 156.464V145.168H6.56V155.536C6.56 156.581 6.80533 157.339 7.296 157.808C7.78667 158.277 8.512 158.512 9.472 158.512C10.4533 158.512 11.264 158.171 11.904 157.488C12.5653 156.784 12.896 155.92 12.896 154.896V145.168H17.28V162H13.536L13.216 159.792H12.992C11.6267 161.52 9.87733 162.384 7.744 162.384ZM21.8345 145.168H25.5785L25.8985 147.376H26.1225C27.3598 145.648 28.9598 144.784 30.9225 144.784C33.0558 144.784 34.5278 145.648 35.3385 147.376H35.5945C36.8745 145.648 38.5385 144.784 40.5865 144.784C42.1865 144.784 43.4558 145.253 44.3945 146.192C45.3545 147.131 45.8345 148.635 45.8345 150.704V162H41.4505V151.632C41.4505 149.648 40.6292 148.656 38.9865 148.656C38.1332 148.656 37.4292 149.008 36.8745 149.712C36.3198 150.395 36.0425 151.248 36.0425 152.272V162H31.6585V151.632C31.6585 149.648 30.8372 148.656 29.1945 148.656C28.3412 148.656 27.6265 149.008 27.0505 149.712C26.4958 150.395 26.2185 151.248 26.2185 152.272V162H21.8345V145.168ZM59.0503 140.048H69.5143C71.9676 140.048 73.8129 140.677 75.0503 141.936C76.2876 143.173 76.9062 144.933 76.9062 147.216C76.9062 149.499 76.2556 151.28 74.9543 152.56C73.6743 153.819 71.7543 154.448 69.1943 154.448H63.6903V162H59.0503V140.048ZM69.0983 150.512C70.1009 150.512 70.8689 150.224 71.4023 149.648C71.9356 149.072 72.2023 148.261 72.2023 147.216C72.2023 146.192 71.9356 145.403 71.4023 144.848C70.8689 144.272 70.1009 143.984 69.0983 143.984H63.6903V150.512H69.0983ZM80.522 145.168H84.266L84.618 147.888H84.842C85.2047 146.928 85.674 146.171 86.25 145.616C86.826 145.061 87.5833 144.784 88.522 144.784C89.1407 144.784 89.6953 144.88 90.186 145.072V149.168H88.97C87.5407 149.168 86.506 149.563 85.866 150.352C85.226 151.12 84.906 152.293 84.906 153.872V162H80.522V145.168ZM100.448 162.384C97.5675 162.384 95.4235 161.669 94.0155 160.24C92.6075 158.811 91.9035 156.592 91.9035 153.584C91.9035 150.576 92.6075 148.357 94.0155 146.928C95.4235 145.499 97.5675 144.784 100.448 144.784C103.328 144.784 105.472 145.499 106.88 146.928C108.309 148.357 109.024 150.576 109.024 153.584C109.024 156.592 108.309 158.811 106.88 160.24C105.472 161.669 103.328 162.384 100.448 162.384ZM100.448 158.8C101.877 158.8 102.912 158.395 103.552 157.584C104.192 156.752 104.512 155.504 104.512 153.84V153.328C104.512 151.664 104.192 150.427 103.552 149.616C102.912 148.784 101.877 148.368 100.448 148.368C99.0182 148.368 97.9835 148.784 97.3435 149.616C96.7248 150.427 96.4155 151.664 96.4155 153.328V153.84C96.4155 155.504 96.7248 156.752 97.3435 157.584C97.9835 158.395 99.0182 158.8 100.448 158.8ZM112.938 148.752H110.538V145.168H112.938V143.248C112.938 141.925 113.29 140.827 113.994 139.952C114.698 139.056 115.861 138.608 117.482 138.608C117.93 138.608 118.421 138.661 118.954 138.768C119.487 138.875 119.935 138.992 120.298 139.12V142.192H118.698C117.781 142.192 117.322 142.651 117.322 143.568V145.168H122.954V143.248C122.954 141.925 123.306 140.827 124.01 139.952C124.714 139.056 125.877 138.608 127.498 138.608C127.946 138.608 128.437 138.661 128.97 138.768C129.503 138.875 129.951 138.992 130.314 139.12V142.192H128.714C127.797 142.192 127.338 142.651 127.338 143.568V145.168H130.314V148.752H127.338V162H122.954V148.752H117.322V162H112.938V148.752ZM135.77 167.824C134.596 167.824 133.594 167.685 132.762 167.408V164.336H134.842C135.588 164.336 136.196 164.155 136.666 163.792C137.135 163.429 137.519 162.832 137.818 162L131.226 145.168H135.802L138.97 153.072C139.29 153.904 139.684 155.365 140.154 157.456H140.314C140.826 155.493 141.22 154.043 141.498 153.104L143.994 145.168H148.442L142.778 161.136C142.266 162.544 141.732 163.717 141.178 164.656C140.623 165.616 139.898 166.384 139.002 166.96C138.127 167.536 137.05 167.824 135.77 167.824ZM156.239 154.32C156.239 153.339 156.388 152.507 156.687 151.824C156.985 151.12 157.337 150.565 157.743 150.16C158.148 149.733 158.681 149.275 159.343 148.784C160.025 148.293 160.527 147.845 160.847 147.44C161.188 147.035 161.359 146.533 161.359 145.936C161.359 144.336 160.324 143.536 158.255 143.536C157.039 143.536 156.207 143.845 155.759 144.464C155.311 145.061 155.087 145.723 155.087 146.448L155.119 147.312H150.671C150.585 146.949 150.543 146.576 150.543 146.192C150.543 144.976 150.841 143.877 151.439 142.896C152.057 141.893 152.964 141.104 154.159 140.528C155.375 139.952 156.847 139.664 158.575 139.664C160.943 139.664 162.788 140.155 164.111 141.136C165.455 142.096 166.127 143.504 166.127 145.36C166.127 146.32 165.967 147.152 165.647 147.856C165.348 148.539 164.975 149.104 164.527 149.552C164.1 149.979 163.524 150.469 162.799 151.024C161.924 151.728 161.273 152.336 160.847 152.848C160.441 153.36 160.239 154.011 160.239 154.8V155.696H156.239V154.32ZM156.047 157.616H160.463V162H156.047V157.616Z" fill="white"/>
<path d="M2.688 207.144V203.048H4.832C6.496 203.048 7.2 203.816 7.2 205.112C7.2 206.36 6.496 207.144 4.832 207.144H2.688ZM8.688 205.112C8.688 203.288 7.456 201.848 4.832 201.848H1.232V213H2.688V208.344H4.832C7.6 208.344 8.688 206.808 8.688 205.112ZM9.95363 208.584C9.95363 211.304 11.7616 213.144 14.0976 213.144C15.7136 213.144 16.8496 212.312 17.3776 211.368V213H18.8496V204.232H17.3776V205.832C16.8656 204.92 15.7456 204.088 14.1136 204.088C11.7616 204.088 9.95363 205.848 9.95363 208.584ZM17.3776 208.6C17.3776 210.664 16.0016 211.864 14.4016 211.864C12.8016 211.864 11.4416 210.648 11.4416 208.584C11.4416 206.52 12.8016 205.352 14.4016 205.352C16.0016 205.352 17.3776 206.568 17.3776 208.6ZM22.7661 208.232C22.7661 206.2 23.8221 205.576 25.2141 205.576H25.5981V204.072C24.2061 204.072 23.2621 204.68 22.7661 205.656V204.232H21.3101V213H22.7661V208.232ZM26.7349 208.584C26.7349 211.304 28.5429 213.144 30.8789 213.144C32.4949 213.144 33.6309 212.312 34.1589 211.368V213H35.6309V204.232H34.1589V205.832C33.6469 204.92 32.5269 204.088 30.8949 204.088C28.5429 204.088 26.7349 205.848 26.7349 208.584ZM34.1589 208.6C34.1589 210.664 32.7829 211.864 31.1829 211.864C29.5829 211.864 28.2229 210.648 28.2229 208.584C28.2229 206.52 29.5829 205.352 31.1829 205.352C32.7829 205.352 34.1589 206.568 34.1589 208.6ZM41.813 208.6C41.813 211.384 43.589 213.144 46.085 213.144C48.261 213.144 49.685 211.928 50.133 210.184H48.565C48.245 211.288 47.381 211.912 46.085 211.912C44.485 211.912 43.301 210.776 43.301 208.6C43.301 206.456 44.485 205.32 46.085 205.32C47.381 205.32 48.261 205.992 48.565 207.048H50.133C49.685 205.208 48.261 204.088 46.085 204.088C43.589 204.088 41.813 205.848 41.813 208.6ZM60.3958 208.6C60.3958 205.832 58.4598 204.088 55.9638 204.088C53.4838 204.088 51.5318 205.832 51.5318 208.6C51.5318 211.384 53.4198 213.144 55.8998 213.144C58.3958 213.144 60.3958 211.384 60.3958 208.6ZM53.0198 208.6C53.0198 206.392 54.4118 205.352 55.9478 205.352C57.4518 205.352 58.9078 206.392 58.9078 208.6C58.9078 210.824 57.4198 211.864 55.8998 211.864C54.3798 211.864 53.0198 210.824 53.0198 208.6ZM74.9661 213H76.4061V207.832C76.4061 205.32 74.8541 204.072 72.8541 204.072C71.5101 204.072 70.2621 204.76 69.7501 206.024C69.1741 204.712 67.9741 204.072 66.5341 204.072C65.3821 204.072 64.3421 204.568 63.7661 205.496V204.232H62.3101V213H63.7661V208.168C63.7661 206.28 64.7741 205.336 66.2461 205.336C67.6861 205.336 68.6461 206.248 68.6461 208.04V213H70.0861V208.168C70.0861 206.28 71.0941 205.336 72.5661 205.336C74.0061 205.336 74.9661 206.248 74.9661 208.04V213ZM82.5225 205.32C84.0265 205.32 85.3065 206.264 85.2905 207.976H79.7545C79.9145 206.264 81.0985 205.32 82.5225 205.32ZM86.6185 210.296H85.0505C84.7305 211.24 83.8985 211.912 82.5865 211.912C81.0985 211.912 79.8505 210.936 79.7385 209.16H86.7465C86.7785 208.856 86.7945 208.6 86.7945 208.28C86.7945 205.88 85.1305 204.088 82.5865 204.088C80.0265 204.088 78.2505 205.832 78.2505 208.6C78.2505 211.384 80.0905 213.144 82.5865 213.144C84.7625 213.144 86.1705 211.896 86.6185 210.296ZM88.1724 208.6C88.1724 211.176 89.7084 212.888 91.9164 213.112V214.824H92.7164C93.4044 214.824 93.7404 215.016 93.7404 215.512C93.7404 216.024 93.4044 216.216 92.7164 216.216H91.1644V217.16H93.0044C94.1404 217.16 94.9564 216.52 94.9564 215.512C94.9564 214.456 94.1244 213.912 92.8924 213.928V213.128C94.8124 212.968 96.0764 211.8 96.4924 210.184H94.9244C94.6044 211.288 93.7404 211.912 92.4444 211.912C90.8444 211.912 89.6604 210.776 89.6604 208.6C89.6604 206.456 90.8444 205.32 92.4444 205.32C93.7404 205.32 94.6204 205.992 94.9244 207.048H96.4924C96.0444 205.208 94.6204 204.088 92.4444 204.088C89.9484 204.088 88.1724 205.848 88.1724 208.6ZM97.8911 208.584C97.8911 211.304 99.6991 213.144 102.035 213.144C103.651 213.144 104.787 212.312 105.315 211.368V213H106.787V204.232H105.315V205.832C104.803 204.92 103.683 204.088 102.051 204.088C99.6991 204.088 97.8911 205.848 97.8911 208.584ZM105.315 208.6C105.315 210.664 103.939 211.864 102.339 211.864C100.739 211.864 99.3791 210.648 99.3791 208.584C99.3791 206.52 100.739 205.352 102.339 205.352C103.939 205.352 105.315 206.568 105.315 208.6ZM110.704 208.232C110.704 206.2 111.76 205.576 113.152 205.576H113.536V204.072C112.144 204.072 111.2 204.68 110.704 205.656V204.232H109.248V213H110.704V208.232ZM113.952 215.288H114.928L116.72 210.984H115.12L113.952 215.288ZM121.614 204.232L125.054 213H126.75L130.19 204.232H128.638L125.918 211.656L123.182 204.232H121.614ZM139.943 208.6C139.943 205.832 138.007 204.088 135.511 204.088C133.031 204.088 131.079 205.832 131.079 208.6C131.079 211.384 132.967 213.144 135.447 213.144C137.943 213.144 139.943 211.384 139.943 208.6ZM132.567 208.6C132.567 206.392 133.959 205.352 135.495 205.352C136.999 205.352 138.455 206.392 138.455 208.6C138.455 210.824 136.967 211.864 135.447 211.864C133.927 211.864 132.567 210.824 132.567 208.6ZM141.313 208.6C141.313 211.384 143.089 213.144 145.585 213.144C147.761 213.144 149.185 211.928 149.633 210.184H148.065C147.745 211.288 146.881 211.912 145.585 211.912C143.985 211.912 142.801 210.776 142.801 208.6C142.801 206.456 143.985 205.32 145.585 205.32C146.881 205.32 147.761 205.992 148.065 207.048H149.633C149.185 205.208 147.761 204.088 145.585 204.088C143.089 204.088 141.313 205.848 141.313 208.6ZM155.304 205.32C156.808 205.32 158.088 206.264 158.072 207.976H152.536C152.696 206.264 153.88 205.32 155.304 205.32ZM159.4 210.296H157.832C157.512 211.24 156.68 211.912 155.368 211.912C153.88 211.912 152.632 210.936 152.52 209.16H159.528C159.56 208.856 159.576 208.6 159.576 208.28C159.576 205.88 157.912 204.088 155.368 204.088C152.808 204.088 151.032 205.832 151.032 208.6C151.032 211.384 152.872 213.144 155.368 213.144C157.544 213.144 158.952 211.896 159.4 210.296ZM157.528 202.296L155.32 200.968L153.096 202.296V203.448L155.32 202.088L157.528 203.448V202.296ZM167.219 205.848V204.232H165.763V217.16H167.219V211.384C167.763 212.28 168.899 213.144 170.499 213.144C172.851 213.144 174.659 211.304 174.659 208.584C174.659 205.848 172.851 204.088 170.499 204.088C168.899 204.088 167.747 204.92 167.219 205.848ZM173.171 208.584C173.171 210.648 171.811 211.864 170.195 211.864C168.611 211.864 167.219 210.664 167.219 208.6C167.219 206.568 168.611 205.352 170.195 205.352C171.811 205.352 173.171 206.52 173.171 208.584ZM178.032 208.232C178.032 206.2 179.088 205.576 180.48 205.576H180.864V204.072C179.472 204.072 178.528 204.68 178.032 205.656V204.232H176.576V213H178.032V208.232ZM186.273 205.32C187.777 205.32 189.057 206.264 189.041 207.976H183.505C183.664 206.264 184.849 205.32 186.273 205.32ZM190.369 210.296H188.801C188.481 211.24 187.649 211.912 186.337 211.912C184.849 211.912 183.601 210.936 183.489 209.16H190.497C190.529 208.856 190.545 208.6 190.545 208.28C190.545 205.88 188.881 204.088 186.337 204.088C183.777 204.088 182.001 205.832 182.001 208.6C182.001 211.384 183.841 213.144 186.337 213.144C188.513 213.144 189.921 211.896 190.369 210.296ZM191.922 208.6C191.922 211.384 193.698 213.144 196.194 213.144C198.37 213.144 199.794 211.928 200.242 210.184H198.674C198.354 211.288 197.49 211.912 196.194 211.912C194.594 211.912 193.41 210.776 193.41 208.6C193.41 206.456 194.594 205.32 196.194 205.32C197.49 205.32 198.37 205.992 198.674 207.048H200.242C199.794 205.208 198.37 204.088 196.194 204.088C193.698 204.088 191.922 205.848 191.922 208.6ZM202.185 213H203.641V204.232H202.185V213ZM202.937 202.808C203.465 202.808 203.897 202.376 203.897 201.816C203.897 201.256 203.465 200.824 202.937 200.824C202.377 200.824 201.945 201.256 201.945 201.816C201.945 202.376 202.377 202.808 202.937 202.808ZM212.427 210.616C212.363 207.48 207.275 208.616 207.275 206.536C207.275 205.832 207.915 205.32 208.987 205.32C210.155 205.32 210.827 205.96 210.891 206.84H212.347C212.251 205.128 210.971 204.088 209.035 204.088C207.083 204.088 205.819 205.192 205.819 206.536C205.819 209.8 211.003 208.664 211.003 210.616C211.003 211.336 210.363 211.912 209.211 211.912C207.979 211.912 207.227 211.272 207.147 210.424H205.643C205.739 212.024 207.179 213.144 209.227 213.144C211.163 213.144 212.427 212.056 212.427 210.616ZM213.938 208.584C213.938 211.304 215.746 213.144 218.082 213.144C219.698 213.144 220.834 212.312 221.362 211.368V213H222.834V204.232H221.362V205.832C220.85 204.92 219.73 204.088 218.098 204.088C215.746 204.088 213.938 205.848 213.938 208.584ZM221.362 208.6C221.362 210.664 219.986 211.864 218.386 211.864C216.786 211.864 215.426 210.648 215.426 208.584C215.426 206.52 216.786 205.352 218.386 205.352C219.986 205.352 221.362 206.568 221.362 208.6ZM7.536 236.616C7.472 233.48 2.384 234.616 2.384 232.536C2.384 231.832 3.024 231.32 4.096 231.32C5.264 231.32 5.936 231.96 6 232.84H7.456C7.36 231.128 6.08 230.088 4.144 230.088C2.192 230.088 0.928 231.192 0.928 232.536C0.928 235.8 6.112 234.664 6.112 236.616C6.112 237.336 5.472 237.912 4.32 237.912C3.088 237.912 2.336 237.272 2.256 236.424H0.752C0.848 238.024 2.288 239.144 4.336 239.144C6.272 239.144 7.536 238.056 7.536 236.616ZM13.3194 231.32C14.8234 231.32 16.1034 232.264 16.0874 233.976H10.5514C10.7114 232.264 11.8954 231.32 13.3194 231.32ZM17.4154 236.296H15.8474C15.5274 237.24 14.6954 237.912 13.3834 237.912C11.8954 237.912 10.6474 236.936 10.5354 235.16H17.5434C17.5754 234.856 17.5914 234.6 17.5914 234.28C17.5914 231.88 15.9274 230.088 13.3834 230.088C10.8234 230.088 9.04738 231.832 9.04738 234.6C9.04738 237.384 10.8874 239.144 13.3834 239.144C15.5594 239.144 16.9674 237.896 17.4154 236.296ZM23.2349 234.6C23.2349 237.384 25.0109 239.144 27.5069 239.144C29.6829 239.144 31.1069 237.928 31.5549 236.184H29.9869C29.6669 237.288 28.8029 237.912 27.5069 237.912C25.9069 237.912 24.7229 236.776 24.7229 234.6C24.7229 232.456 25.9069 231.32 27.5069 231.32C28.8029 231.32 29.6829 231.992 29.9869 233.048H31.5549C31.1069 231.208 29.6829 230.088 27.5069 230.088C25.0109 230.088 23.2349 231.848 23.2349 234.6ZM32.9536 234.584C32.9536 237.304 34.7616 239.144 37.0976 239.144C38.7136 239.144 39.8496 238.312 40.3776 237.368V239H41.8496V230.232H40.3776V231.832C39.8656 230.92 38.7456 230.088 37.1136 230.088C34.7616 230.088 32.9536 231.848 32.9536 234.584ZM40.3776 234.6C40.3776 236.664 39.0016 237.864 37.4016 237.864C35.8016 237.864 34.4416 236.648 34.4416 234.584C34.4416 232.52 35.8016 231.352 37.4016 231.352C39.0016 231.352 40.3776 232.568 40.3776 234.6ZM43.7661 234.584C43.7661 237.304 45.5741 239.144 47.9261 239.144C49.5261 239.144 50.6621 238.328 51.1901 237.352V239H52.6621V227.16H51.1901V231.8C50.5821 230.792 49.3181 230.088 47.9421 230.088C45.5741 230.088 43.7661 231.848 43.7661 234.584ZM51.1901 234.6C51.1901 236.664 49.8141 237.864 48.2141 237.864C46.6141 237.864 45.2541 236.648 45.2541 234.584C45.2541 232.52 46.6141 231.352 48.2141 231.352C49.8141 231.352 51.1901 232.568 51.1901 234.6ZM54.5786 234.584C54.5786 237.304 56.3866 239.144 58.7226 239.144C60.3386 239.144 61.4746 238.312 62.0026 237.368V239H63.4746V230.232H62.0026V231.832C61.4906 230.92 60.3706 230.088 58.7386 230.088C56.3866 230.088 54.5786 231.848 54.5786 234.584ZM62.0026 234.6C62.0026 236.664 60.6266 237.864 59.0266 237.864C57.4266 237.864 56.0666 236.648 56.0666 234.584C56.0666 232.52 57.4266 231.352 59.0266 231.352C60.6266 231.352 62.0026 232.568 62.0026 234.6ZM72.2391 236.616C72.1751 233.48 67.0871 234.616 67.0871 232.536C67.0871 231.832 67.7271 231.32 68.7991 231.32C69.9671 231.32 70.6391 231.96 70.7031 232.84H72.1591C72.0631 231.128 70.7831 230.088 68.8471 230.088C66.8951 230.088 65.6311 231.192 65.6311 232.536C65.6311 235.8 70.8151 234.664 70.8151 236.616C70.8151 237.336 70.1751 237.912 69.0231 237.912C67.7911 237.912 67.0391 237.272 66.9591 236.424H65.4551C65.5511 238.024 66.9911 239.144 69.0391 239.144C70.9751 239.144 72.2391 238.056 72.2391 236.616ZM74.6145 236.6C74.6145 238.36 75.4945 239 77.0465 239H78.3585V237.768H77.2865C76.3905 237.768 76.0705 237.464 76.0705 236.6V231.432H78.3585V230.232H76.0705V228.024H74.6145V230.232H73.4785V231.432H74.6145V236.6ZM81.5786 234.232C81.5786 232.2 82.6346 231.576 84.0266 231.576H84.4106V230.072C83.0186 230.072 82.0746 230.68 81.5786 231.656V230.232H80.1226V239H81.5786V234.232ZM85.5474 234.584C85.5474 237.304 87.3554 239.144 89.6914 239.144C91.3074 239.144 92.4434 238.312 92.9714 237.368V239H94.4434V230.232H92.9714V231.832C92.4594 230.92 91.3394 230.088 89.7074 230.088C87.3554 230.088 85.5474 231.848 85.5474 234.584ZM92.9714 234.6C92.9714 236.664 91.5954 237.864 89.9954 237.864C88.3954 237.864 87.0354 236.648 87.0354 234.584C87.0354 232.52 88.3954 231.352 89.9954 231.352C91.5954 231.352 92.9714 232.568 92.9714 234.6ZM98.3599 234.232C98.3599 232.2 99.4159 231.576 100.808 231.576H101.192V230.072C99.7999 230.072 98.8559 230.68 98.3599 231.656V230.232H96.9039V239H98.3599V234.232ZM106.594 234.6C106.594 237.384 108.37 239.144 110.866 239.144C113.042 239.144 114.466 237.928 114.914 236.184H113.346C113.026 237.288 112.162 237.912 110.866 237.912C109.266 237.912 108.082 236.776 108.082 234.6C108.082 232.456 109.266 231.32 110.866 231.32C112.162 231.32 113.042 231.992 113.346 233.048H114.914C114.466 231.208 113.042 230.088 110.866 230.088C108.37 230.088 106.594 231.848 106.594 234.6ZM125.177 234.6C125.177 231.832 123.241 230.088 120.745 230.088C118.265 230.088 116.313 231.832 116.313 234.6C116.313 237.384 118.201 239.144 120.681 239.144C123.177 239.144 125.177 237.384 125.177 234.6ZM117.801 234.6C117.801 232.392 119.193 231.352 120.729 231.352C122.233 231.352 123.689 232.392 123.689 234.6C123.689 236.824 122.201 237.864 120.681 237.864C119.161 237.864 117.801 236.824 117.801 234.6ZM139.747 239H141.187V233.832C141.187 231.32 139.635 230.072 137.635 230.072C136.291 230.072 135.043 230.76 134.531 232.024C133.955 230.712 132.755 230.072 131.315 230.072C130.163 230.072 129.123 230.568 128.547 231.496V230.232H127.091V239H128.547V234.168C128.547 232.28 129.555 231.336 131.027 231.336C132.467 231.336 133.427 232.248 133.427 234.04V239H134.867V234.168C134.867 232.28 135.875 231.336 137.347 231.336C138.787 231.336 139.747 232.248 139.747 234.04V239ZM151.896 234.6C151.896 231.832 149.96 230.088 147.464 230.088C144.984 230.088 143.032 231.832 143.032 234.6C143.032 237.384 144.92 239.144 147.4 239.144C149.896 239.144 151.896 237.384 151.896 234.6ZM144.52 234.6C144.52 232.392 145.912 231.352 147.448 231.352C148.952 231.352 150.408 232.392 150.408 234.6C150.408 236.824 148.92 237.864 147.4 237.864C145.88 237.864 144.52 236.824 144.52 234.6ZM159.532 231.848V230.232H158.076V243.16H159.532V237.384C160.076 238.28 161.212 239.144 162.812 239.144C165.164 239.144 166.972 237.304 166.972 234.584C166.972 231.848 165.164 230.088 162.812 230.088C161.212 230.088 160.06 230.92 159.532 231.848ZM165.484 234.584C165.484 236.648 164.124 237.864 162.508 237.864C160.924 237.864 159.532 236.664 159.532 234.6C159.532 232.568 160.924 231.352 162.508 231.352C164.124 231.352 165.484 232.52 165.484 234.584ZM170.344 234.232C170.344 232.2 171.4 231.576 172.792 231.576H173.176V230.072C171.784 230.072 170.84 230.68 170.344 231.656V230.232H168.888V239H170.344V234.232ZM183.177 234.6C183.177 231.832 181.241 230.088 178.745 230.088C176.265 230.088 174.313 231.832 174.313 234.6C174.313 237.384 176.201 239.144 178.681 239.144C181.177 239.144 183.177 237.384 183.177 234.6ZM175.801 234.6C175.801 232.392 177.193 231.352 178.729 231.352C180.233 231.352 181.689 232.392 181.689 234.6C181.689 236.824 180.201 237.864 178.681 237.864C177.161 237.864 175.801 236.824 175.801 234.6ZM185.363 239H186.819V231.432H188.659V230.232H186.819V229.608C186.819 228.472 187.251 227.992 188.563 227.992V226.776C186.323 226.776 185.363 227.656 185.363 229.608V230.232H184.227V231.432H185.363V239ZM194.085 231.32C195.589 231.32 196.869 232.264 196.853 233.976H191.317C191.477 232.264 192.661 231.32 194.085 231.32ZM198.181 236.296H196.613C196.293 237.24 195.461 237.912 194.149 237.912C192.661 237.912 191.413 236.936 191.301 235.16H198.309C198.341 234.856 198.357 234.6 198.357 234.28C198.357 231.88 196.693 230.088 194.149 230.088C191.589 230.088 189.813 231.832 189.813 234.6C189.813 237.384 191.653 239.144 194.149 239.144C196.325 239.144 197.733 237.896 198.181 236.296ZM206.583 236.616C206.519 233.48 201.431 234.616 201.431 232.536C201.431 231.832 202.071 231.32 203.143 231.32C204.311 231.32 204.983 231.96 205.047 232.84H206.503C206.407 231.128 205.127 230.088 203.191 230.088C201.239 230.088 199.975 231.192 199.975 232.536C199.975 235.8 205.159 234.664 205.159 236.616C205.159 237.336 204.519 237.912 203.367 237.912C202.135 237.912 201.383 237.272 201.303 236.424H199.799C199.895 238.024 201.335 239.144 203.383 239.144C205.319 239.144 206.583 238.056 206.583 236.616ZM214.942 236.616C214.878 233.48 209.79 234.616 209.79 232.536C209.79 231.832 210.43 231.32 211.502 231.32C212.67 231.32 213.342 231.96 213.406 232.84H214.862C214.766 231.128 213.486 230.088 211.55 230.088C209.598 230.088 208.334 231.192 208.334 232.536C208.334 235.8 213.518 234.664 213.518 236.616C213.518 237.336 212.878 237.912 211.726 237.912C210.494 237.912 209.742 237.272 209.662 236.424H208.158C208.254 238.024 209.694 239.144 211.742 239.144C213.678 239.144 214.942 238.056 214.942 236.616ZM225.318 234.6C225.318 231.832 223.382 230.088 220.886 230.088C218.406 230.088 216.454 231.832 216.454 234.6C216.454 237.384 218.342 239.144 220.822 239.144C223.318 239.144 225.318 237.384 225.318 234.6ZM217.942 234.6C217.942 232.392 219.334 231.352 220.87 231.352C222.374 231.352 223.83 232.392 223.83 234.6C223.83 236.824 222.342 237.864 220.822 237.864C219.302 237.864 217.942 236.824 217.942 234.6ZM228.688 234.232C228.688 232.2 229.744 231.576 231.136 231.576H231.52V230.072C230.128 230.072 229.184 230.68 228.688 231.656V230.232H227.232V239H228.688V234.232ZM7.648 265H9.088V259.832C9.088 257.32 7.536 256.072 5.504 256.072C4.32 256.072 3.264 256.568 2.688 257.48V256.232H1.232V265H2.688V260.152C2.688 258.264 3.712 257.336 5.2 257.336C6.672 257.336 7.648 258.248 7.648 260.04V265ZM10.9224 260.584C10.9224 263.304 12.7304 265.144 15.0664 265.144C16.6824 265.144 17.8184 264.312 18.3464 263.368V265H19.8184V256.232H18.3464V257.832C17.8344 256.92 16.7144 256.088 15.0824 256.088C12.7304 256.088 10.9224 257.848 10.9224 260.584ZM18.3464 260.6C18.3464 262.664 16.9704 263.864 15.3704 263.864C13.7704 263.864 12.4104 262.648 12.4104 260.584C12.4104 258.52 13.7704 257.352 15.3704 257.352C16.9704 257.352 18.3464 258.568 18.3464 260.6ZM32.9605 265H34.4005V259.832C34.4005 257.32 32.8485 256.072 30.8165 256.072C29.6325 256.072 28.5765 256.568 28.0005 257.48V256.232H26.5445V265H28.0005V260.152C28.0005 258.264 29.0245 257.336 30.5125 257.336C31.9845 257.336 32.9605 258.248 32.9605 260.04V265ZM45.0989 260.6C45.0989 257.832 43.1629 256.088 40.6669 256.088C38.1869 256.088 36.2349 257.832 36.2349 260.6C36.2349 263.384 38.1229 265.144 40.6029 265.144C43.0989 265.144 45.0989 263.384 45.0989 260.6ZM37.7229 260.6C37.7229 258.392 39.1149 257.352 40.6509 257.352C42.1549 257.352 43.6109 258.392 43.6109 260.6C43.6109 262.824 42.1229 263.864 40.6029 263.864C39.0829 263.864 37.7229 262.824 37.7229 260.6ZM53.3173 262.616C53.2533 259.48 48.1653 260.616 48.1653 258.536C48.1653 257.832 48.8053 257.32 49.8773 257.32C51.0453 257.32 51.7173 257.96 51.7813 258.84H53.2373C53.1413 257.128 51.8613 256.088 49.9253 256.088C47.9733 256.088 46.7093 257.192 46.7093 258.536C46.7093 261.8 51.8933 260.664 51.8933 262.616C51.8933 263.336 51.2533 263.912 50.1013 263.912C48.8693 263.912 48.1173 263.272 48.0373 262.424H46.5333C46.6293 264.024 48.0693 265.144 50.1173 265.144C52.0533 265.144 53.3173 264.056 53.3173 262.616ZM61.6766 262.616C61.6126 259.48 56.5246 260.616 56.5246 258.536C56.5246 257.832 57.1646 257.32 58.2366 257.32C59.4046 257.32 60.0766 257.96 60.1406 258.84H61.5966C61.5006 257.128 60.2206 256.088 58.2846 256.088C56.3326 256.088 55.0686 257.192 55.0686 258.536C55.0686 261.8 60.2526 260.664 60.2526 262.616C60.2526 263.336 59.6126 263.912 58.4606 263.912C57.2286 263.912 56.4766 263.272 56.3966 262.424H54.8926C54.9886 264.024 56.4286 265.144 58.4766 265.144C60.4126 265.144 61.6766 264.056 61.6766 262.616ZM63.188 260.584C63.188 263.304 64.996 265.144 67.332 265.144C68.948 265.144 70.084 264.312 70.612 263.368V265H72.084V256.232H70.612V257.832C70.1 256.92 68.98 256.088 67.348 256.088C64.996 256.088 63.188 257.848 63.188 260.584ZM70.612 260.6C70.612 262.664 69.236 263.864 67.636 263.864C66.036 263.864 64.676 262.648 64.676 260.584C64.676 258.52 66.036 257.352 67.636 257.352C69.236 257.352 70.612 258.568 70.612 260.6ZM80.2661 257.848V256.232H78.8101V269.16H80.2661V263.384C80.8101 264.28 81.9461 265.144 83.5461 265.144C85.8981 265.144 87.7061 263.304 87.7061 260.584C87.7061 257.848 85.8981 256.088 83.5461 256.088C81.9461 256.088 80.7941 256.92 80.2661 257.848ZM86.2181 260.584C86.2181 262.648 84.8581 263.864 83.2421 263.864C81.6581 263.864 80.2661 262.664 80.2661 260.6C80.2661 258.568 81.6581 257.352 83.2421 257.352C84.8581 257.352 86.2181 258.52 86.2181 260.584ZM89.6226 265H91.0786V253.16H89.6226V265ZM93.0161 260.584C93.0161 263.304 94.8241 265.144 97.1601 265.144C98.7761 265.144 99.9121 264.312 100.44 263.368V265H101.912V256.232H100.44V257.832C99.9281 256.92 98.8081 256.088 97.1761 256.088C94.8241 256.088 93.0161 257.848 93.0161 260.584ZM100.44 260.6C100.44 262.664 99.0641 263.864 97.4641 263.864C95.8641 263.864 94.5041 262.648 94.5041 260.584C94.5041 258.52 95.8641 257.352 97.4641 257.352C99.0641 257.352 100.44 258.568 100.44 260.6ZM104.693 262.6C104.693 264.36 105.573 265 107.125 265H108.437V263.768H107.365C106.469 263.768 106.149 263.464 106.149 262.6V257.432H108.437V256.232H106.149V254.024H104.693V256.232H103.557V257.432H104.693V262.6ZM109.657 260.584C109.657 263.304 111.465 265.144 113.801 265.144C115.417 265.144 116.553 264.312 117.081 263.368V265H118.553V256.232H117.081V257.832C116.569 256.92 115.449 256.088 113.817 256.088C111.465 256.088 109.657 257.848 109.657 260.584ZM117.081 260.6C117.081 262.664 115.705 263.864 114.105 263.864C112.505 263.864 111.145 262.648 111.145 260.584C111.145 258.52 112.505 257.352 114.105 257.352C115.705 257.352 117.081 258.568 117.081 260.6ZM121.285 265H122.741V257.432H124.581V256.232H122.741V255.608C122.741 254.472 123.173 253.992 124.485 253.992V252.776C122.245 252.776 121.285 253.656 121.285 255.608V256.232H120.149V257.432H121.285V265ZM134.599 260.6C134.599 257.832 132.663 256.088 130.167 256.088C127.687 256.088 125.735 257.832 125.735 260.6C125.735 263.384 127.623 265.144 130.103 265.144C132.599 265.144 134.599 263.384 134.599 260.6ZM127.223 260.6C127.223 258.392 128.615 257.352 130.151 257.352C131.655 257.352 133.111 258.392 133.111 260.6C133.111 262.824 131.623 263.864 130.103 263.864C128.583 263.864 127.223 262.824 127.223 260.6ZM137.969 260.232C137.969 258.2 139.025 257.576 140.417 257.576H140.801V256.072C139.409 256.072 138.465 256.68 137.969 257.656V256.232H136.513V265H137.969V260.232ZM155.138 265H156.578V259.832C156.578 257.32 155.026 256.072 153.026 256.072C151.682 256.072 150.434 256.76 149.922 258.024C149.346 256.712 148.146 256.072 146.706 256.072C145.554 256.072 144.514 256.568 143.938 257.496V256.232H142.482V265H143.938V260.168C143.938 258.28 144.946 257.336 146.418 257.336C147.858 257.336 148.818 258.248 148.818 260.04V265H150.258V260.168C150.258 258.28 151.266 257.336 152.738 257.336C154.178 257.336 155.138 258.248 155.138 260.04V265ZM158.422 260.584C158.422 263.304 160.23 265.144 162.566 265.144C164.182 265.144 165.318 264.312 165.846 263.368V265H167.318V256.232H165.846V257.832C165.334 256.92 164.214 256.088 162.582 256.088C160.23 256.088 158.422 257.848 158.422 260.584ZM165.846 260.6C165.846 262.664 164.47 263.864 162.87 263.864C161.27 263.864 159.91 262.648 159.91 260.584C159.91 258.52 161.27 257.352 162.87 257.352C164.47 257.352 165.846 258.568 165.846 260.6ZM175.757 265H177.261L179.373 258.04L181.485 265H182.989L185.725 256.232H184.285L182.301 263.608L180.173 256.232H178.685L176.509 263.592L174.493 256.232H173.005L175.757 265ZM190.898 257.32C192.402 257.32 193.682 258.264 193.666 259.976H188.13C188.289 258.264 189.474 257.32 190.898 257.32ZM194.994 262.296H193.426C193.106 263.24 192.274 263.912 190.962 263.912C189.474 263.912 188.226 262.936 188.114 261.16H195.122C195.154 260.856 195.17 260.6 195.17 260.28C195.17 257.88 193.506 256.088 190.962 256.088C188.402 256.088 186.626 257.832 186.626 260.6C186.626 263.384 188.466 265.144 190.962 265.144C193.138 265.144 194.546 263.896 194.994 262.296ZM198.547 257.864V253.16H197.091V265H198.547V263.384C199.091 264.344 200.227 265.144 201.827 265.144C204.179 265.144 205.987 263.304 205.987 260.584C205.987 257.848 204.195 256.088 201.827 256.088C200.275 256.088 199.107 256.888 198.547 257.864ZM204.499 260.584C204.499 262.648 203.139 263.864 201.523 263.864C199.939 263.864 198.547 262.664 198.547 260.6C198.547 258.568 199.939 257.352 201.523 257.352C203.139 257.352 204.499 258.52 204.499 260.584ZM209.328 264.104C209.328 263.544 208.896 263.112 208.368 263.112C207.808 263.112 207.376 263.544 207.376 264.104C207.376 264.664 207.808 265.096 208.368 265.096C208.896 265.096 209.328 264.664 209.328 264.104Z" fill="#D4C2FF"/>
<path d="M58.016 361.608V358.536H59.624C60.872 358.536 61.4 359.112 61.4 360.084C61.4 361.02 60.872 361.608 59.624 361.608H58.016ZM62.516 360.084C62.516 358.716 61.592 357.636 59.624 357.636H56.924V366H58.016V362.508H59.624C61.7 362.508 62.516 361.356 62.516 360.084ZM64.9652 362.424C64.9652 360.9 65.7572 360.432 66.8012 360.432H67.0892V359.304C66.0452 359.304 65.3372 359.76 64.9652 360.492V359.424H63.8732V366H64.9652V362.424ZM71.1458 360.24C72.2738 360.24 73.2338 360.948 73.2218 362.232H69.0698C69.1898 360.948 70.0778 360.24 71.1458 360.24ZM74.2178 363.972H73.0418C72.8018 364.68 72.1778 365.184 71.1938 365.184C70.0778 365.184 69.1418 364.452 69.0578 363.12H74.3138C74.3378 362.892 74.3498 362.7 74.3498 362.46C74.3498 360.66 73.1018 359.316 71.1938 359.316C69.2738 359.316 67.9418 360.624 67.9418 362.7C67.9418 364.788 69.3218 366.108 71.1938 366.108C72.8258 366.108 73.8818 365.172 74.2178 363.972ZM76.8832 360.636V359.424H75.7912V369.12H76.8832V364.788C77.2912 365.46 78.1432 366.108 79.3432 366.108C81.1072 366.108 82.4632 364.728 82.4632 362.688C82.4632 360.636 81.1072 359.316 79.3432 359.316C78.1432 359.316 77.2792 359.94 76.8832 360.636ZM81.3472 362.688C81.3472 364.236 80.3272 365.148 79.1152 365.148C77.9272 365.148 76.8832 364.248 76.8832 362.7C76.8832 361.176 77.9272 360.264 79.1152 360.264C80.3272 360.264 81.3472 361.14 81.3472 362.688ZM83.4926 362.688C83.4926 364.728 84.8486 366.108 86.6006 366.108C87.8126 366.108 88.6646 365.484 89.0606 364.776V366H90.1646V359.424H89.0606V360.624C88.6766 359.94 87.8366 359.316 86.6126 359.316C84.8486 359.316 83.4926 360.636 83.4926 362.688ZM89.0606 362.7C89.0606 364.248 88.0286 365.148 86.8286 365.148C85.6286 365.148 84.6086 364.236 84.6086 362.688C84.6086 361.14 85.6286 360.264 86.8286 360.264C88.0286 360.264 89.0606 361.176 89.0606 362.7ZM93.1019 362.424C93.1019 360.9 93.8939 360.432 94.9379 360.432H95.2259V359.304C94.1819 359.304 93.4739 359.76 93.1019 360.492V359.424H92.0099V366H93.1019V362.424ZM96.0785 362.688C96.0785 364.728 97.4345 366.108 99.1865 366.108C100.399 366.108 101.251 365.484 101.647 364.776V366H102.751V359.424H101.647V360.624C101.263 359.94 100.423 359.316 99.1985 359.316C97.4345 359.316 96.0785 360.636 96.0785 362.688ZM101.647 362.7C101.647 364.248 100.615 365.148 99.4145 365.148C98.2145 365.148 97.1945 364.236 97.1945 362.688C97.1945 361.14 98.2145 360.264 99.4145 360.264C100.615 360.264 101.647 361.176 101.647 362.7ZM105.688 362.424C105.688 360.9 106.48 360.432 107.524 360.432H107.812V359.304C106.768 359.304 106.06 359.76 105.688 360.492V359.424H104.596V366H105.688V362.424ZM111.868 360.24C112.996 360.24 113.956 360.948 113.944 362.232H109.792C109.912 360.948 110.8 360.24 111.868 360.24ZM114.94 363.972H113.764C113.524 364.68 112.9 365.184 111.916 365.184C110.8 365.184 109.864 364.452 109.78 363.12H115.036C115.06 362.892 115.072 362.7 115.072 362.46C115.072 360.66 113.824 359.316 111.916 359.316C109.996 359.316 108.664 360.624 108.664 362.7C108.664 364.788 110.044 366.108 111.916 366.108C113.548 366.108 114.604 365.172 114.94 363.972ZM116.286 362.064H121.074V361.14H116.286V362.064ZM127.851 364.212C127.803 361.86 123.987 362.712 123.987 361.152C123.987 360.624 124.467 360.24 125.271 360.24C126.147 360.24 126.651 360.72 126.699 361.38H127.791C127.719 360.096 126.759 359.316 125.307 359.316C123.843 359.316 122.895 360.144 122.895 361.152C122.895 363.6 126.783 362.748 126.783 364.212C126.783 364.752 126.303 365.184 125.439 365.184C124.515 365.184 123.951 364.704 123.891 364.068H122.763C122.835 365.268 123.915 366.108 125.451 366.108C126.903 366.108 127.851 365.292 127.851 364.212ZM132.189 360.24C133.317 360.24 134.277 360.948 134.265 362.232H130.113C130.233 360.948 131.121 360.24 132.189 360.24ZM135.261 363.972H134.085C133.845 364.68 133.221 365.184 132.237 365.184C131.121 365.184 130.185 364.452 130.101 363.12H135.357C135.381 362.892 135.393 362.7 135.393 362.46C135.393 360.66 134.145 359.316 132.237 359.316C130.317 359.316 128.985 360.624 128.985 362.7C128.985 364.788 130.365 366.108 132.237 366.108C133.869 366.108 134.925 365.172 135.261 363.972ZM137.206 363.636H138.118L138.25 357.636H137.074L137.206 363.636ZM138.43 365.328C138.43 364.908 138.106 364.584 137.71 364.584C137.29 364.584 136.966 364.908 136.966 365.328C136.966 365.748 137.29 366.072 137.71 366.072C138.106 366.072 138.43 365.748 138.43 365.328ZM56.144 379.424L58.724 386H59.996L62.576 379.424H61.412L59.372 384.992L57.32 379.424H56.144ZM63.2426 382.688C63.2426 384.728 64.5986 386.108 66.3506 386.108C67.5626 386.108 68.4146 385.484 68.8106 384.776V386H69.9146V379.424H68.8106V380.624C68.4266 379.94 67.5866 379.316 66.3626 379.316C64.5986 379.316 63.2426 380.636 63.2426 382.688ZM68.8106 382.7C68.8106 384.248 67.7786 385.148 66.5786 385.148C65.3786 385.148 64.3586 384.236 64.3586 382.688C64.3586 381.14 65.3786 380.264 66.5786 380.264C67.7786 380.264 68.8106 381.176 68.8106 382.7ZM71.7599 386H72.8519V379.424H71.7599V386ZM72.3239 378.356C72.7199 378.356 73.0439 378.032 73.0439 377.612C73.0439 377.192 72.7199 376.868 72.3239 376.868C71.9039 376.868 71.5799 377.192 71.5799 377.612C71.5799 378.032 71.9039 378.356 72.3239 378.356ZM82.6403 384.212C82.5923 381.86 78.7763 382.712 78.7763 381.152C78.7763 380.624 79.2563 380.24 80.0603 380.24C80.9363 380.24 81.4403 380.72 81.4883 381.38H82.5803C82.5083 380.096 81.5483 379.316 80.0963 379.316C78.6323 379.316 77.6843 380.144 77.6843 381.152C77.6843 383.6 81.5723 382.748 81.5723 384.212C81.5723 384.752 81.0923 385.184 80.2283 385.184C79.3043 385.184 78.7403 384.704 78.6803 384.068H77.5523C77.6243 385.268 78.7043 386.108 80.2403 386.108C81.6923 386.108 82.6403 385.292 82.6403 384.212ZM86.9778 380.24C88.1058 380.24 89.0658 380.948 89.0538 382.232H84.9018C85.0218 380.948 85.9098 380.24 86.9778 380.24ZM90.0498 383.972H88.8738C88.6338 384.68 88.0098 385.184 87.0258 385.184C85.9098 385.184 84.9738 384.452 84.8898 383.12H90.1458C90.1698 382.892 90.1818 382.7 90.1818 382.46C90.1818 380.66 88.9338 379.316 87.0258 379.316C85.1058 379.316 83.7738 380.624 83.7738 382.7C83.7738 384.788 85.1538 386.108 87.0258 386.108C88.6578 386.108 89.7138 385.172 90.0498 383.972ZM92.7152 382.424C92.7152 380.9 93.5072 380.432 94.5512 380.432H94.8392V379.304C93.7952 379.304 93.0872 379.76 92.7152 380.492V379.424H91.6232V386H92.7152V382.424ZM105.539 382.7C105.539 380.624 104.087 379.316 102.215 379.316C100.355 379.316 98.891 380.624 98.891 382.7C98.891 384.788 100.307 386.108 102.167 386.108C104.039 386.108 105.539 384.788 105.539 382.7ZM100.007 382.7C100.007 381.044 101.051 380.264 102.203 380.264C103.331 380.264 104.423 381.044 104.423 382.7C104.423 384.368 103.307 385.148 102.167 385.148C101.027 385.148 100.007 384.368 100.007 382.7ZM119.666 386H120.746V382.124C120.746 380.24 119.582 379.304 118.082 379.304C117.074 379.304 116.138 379.82 115.754 380.768C115.322 379.784 114.422 379.304 113.342 379.304C112.478 379.304 111.698 379.676 111.266 380.372V379.424H110.174V386H111.266V382.376C111.266 380.96 112.022 380.252 113.126 380.252C114.206 380.252 114.926 380.936 114.926 382.28V386H116.006V382.376C116.006 380.96 116.762 380.252 117.866 380.252C118.946 380.252 119.666 380.936 119.666 382.28V386ZM122.129 382.688C122.129 384.728 123.485 386.108 125.237 386.108C126.449 386.108 127.301 385.484 127.697 384.776V386H128.801V379.424H127.697V380.624C127.313 379.94 126.473 379.316 125.249 379.316C123.485 379.316 122.129 380.636 122.129 382.688ZM127.697 382.7C127.697 384.248 126.665 385.148 125.465 385.148C124.265 385.148 123.245 384.236 123.245 382.688C123.245 381.14 124.265 380.264 125.465 380.264C126.665 380.264 127.697 381.176 127.697 382.7ZM124.289 378.116V378.932L126.845 377.564V376.616L124.289 378.116ZM134.079 386H135.315L133.191 382.676L135.303 379.424H134.163L132.675 381.86L131.115 379.424H129.879L132.003 382.736L129.879 386H131.019L132.519 383.552L134.079 386ZM136.389 386H137.481V379.424H136.389V386ZM136.953 378.356C137.349 378.356 137.673 378.032 137.673 377.612C137.673 377.192 137.349 376.868 136.953 376.868C136.533 376.868 136.209 377.192 136.209 377.612C136.209 378.032 136.533 378.356 136.953 378.356ZM148.834 386H149.914V382.124C149.914 380.24 148.75 379.304 147.25 379.304C146.242 379.304 145.306 379.82 144.922 380.768C144.49 379.784 143.59 379.304 142.51 379.304C141.646 379.304 140.866 379.676 140.434 380.372V379.424H139.342V386H140.434V382.376C140.434 380.96 141.19 380.252 142.294 380.252C143.374 380.252 144.094 380.936 144.094 382.28V386H145.174V382.376C145.174 380.96 145.93 380.252 147.034 380.252C148.114 380.252 148.834 380.936 148.834 382.28V386ZM157.945 382.7C157.945 380.624 156.493 379.316 154.621 379.316C152.761 379.316 151.297 380.624 151.297 382.7C151.297 384.788 152.713 386.108 154.573 386.108C156.445 386.108 157.945 384.788 157.945 382.7ZM152.413 382.7C152.413 381.044 153.457 380.264 154.609 380.264C155.737 380.264 156.829 381.044 156.829 382.7C156.829 384.368 155.713 385.148 154.573 385.148C153.433 385.148 152.413 384.368 152.413 382.7ZM160.449 385.328C160.449 384.908 160.125 384.584 159.729 384.584C159.309 384.584 158.985 384.908 158.985 385.328C158.985 385.748 159.309 386.072 159.729 386.072C160.125 386.072 160.449 385.748 160.449 385.328Z" fill="#24EF7F"/>
<path d="M0.0246582 371.543L7.33351 365.143L21.9512 366.057L22.8648 380.686L16.4696 388C16.4696 388 16.4705 382.515 10.9879 377.029C5.50538 371.542 0.0246582 371.543 0.0246582 371.543Z" fill="#6842C2"/>
<path d="M1.78224e-05 388C1.78224e-05 388 -0.032872 380.705 2.72713 377.943C5.48714 375.181 12.8152 375.371 12.8152 375.371C12.8152 375.371 12.8143 382.514 10.0734 385.257C7.33262 388 1.78224e-05 388 1.78224e-05 388Z" fill="#FFAC33"/>
<path d="M7.33277 384.343C9.35105 384.343 10.9872 382.705 10.9872 380.686C10.9872 378.666 9.35105 377.029 7.33277 377.029C5.31449 377.029 3.67834 378.666 3.67834 380.686C3.67834 382.705 5.31449 384.343 7.33277 384.343Z" fill="#FFCC4D"/>
<path d="M32.0001 356C32.0001 356 22.8641 356 11.9008 365.143C6.41916 369.714 6.41916 377.943 8.24638 379.771C10.0736 381.6 18.296 381.6 22.8641 376.114C32.0001 365.143 32.0001 356 32.0001 356Z" fill="#04D361"/>
<path d="M23.7776 360.571C22.2948 360.571 21.0249 361.459 20.4512 362.729C20.9098 362.522 21.415 362.4 21.9504 362.4C23.9686 362.4 25.6048 364.037 25.6048 366.057C25.6048 366.593 25.4833 367.098 25.2768 367.557C26.5458 366.983 27.432 365.712 27.432 364.229C27.432 362.209 25.7958 360.571 23.7776 360.571Z" fill="#6842C2"/>
<path d="M6.42017 381.6C6.42017 381.6 6.42017 377.943 7.33377 377.029C8.24738 376.114 19.2116 366.972 20.1243 367.886C21.037 368.799 11.9009 379.771 10.9873 380.686C10.0737 381.6 6.42017 381.6 6.42017 381.6Z" fill="#6842C2"/>
</svg>
